<?xml version="1.0" standalone="no"?><!DOCTYPE svg PUBLIC "-//W3C//DTD SVG 1.1//EN" "http://www.w3.org/Graphics/SVG/1.1/DTD/svg11.dtd"><svg class="icon" width="200px" height="200.00px" viewBox="0 0 1024 1024" version="1.1" xmlns="http://www.w3.org/2000/svg"><path d="M544 480H288c-19.2 0-32 12.8-32 32s12.8 32 32 32h256c19.2 0 32-12.8 32-32s-12.8-32-32-32zM736 320H288c-19.2 0-32 12.8-32 32s12.8 32 32 32h448c19.2 0 32-12.8 32-32s-12.8-32-32-32z" fill="#61c4fa" /><path d="M896 96H128C73.6 96 32 137.6 32 192v480c0 54.4 41.6 96 96 96h64v128c0 12.8 6.4 22.4 16 28.8 6.4 3.2 9.6 3.2 16 3.2s12.8-3.2 19.2-6.4l214.4-153.6H896c54.4 0 96-41.6 96-96V192c0-54.4-41.6-96-96-96z m32 576c0 19.2-12.8 32-32 32H448c-6.4 0-12.8 3.2-19.2 6.4L256 835.2V736c0-19.2-12.8-32-32-32H128c-19.2 0-32-12.8-32-32V192c0-19.2 12.8-32 32-32h768c19.2 0 32 12.8 32 32v480z" fill="#ffffff" /></svg>