<?xml version="1.0" standalone="no"?><!DOCTYPE svg PUBLIC "-//W3C//DTD SVG 1.1//EN" "http://www.w3.org/Graphics/SVG/1.1/DTD/svg11.dtd"><svg class="icon" width="200px" height="200.00px" viewBox="0 0 1024 1024" version="1.1" xmlns="http://www.w3.org/2000/svg"><path d="M654.933 977.067H369.067c-78.934 0-142.934-64-142.934-142.934v-672c0-78.933 64-142.933 142.934-142.933h285.866c78.934 0 142.934 64 142.934 142.933v672c0 78.934-64 142.934-142.934 142.934zM369.067 83.2c-42.667 0-78.934 36.267-78.934 78.933v672c0 42.667 36.267 78.934 78.934 78.934h285.866c42.667 0 78.934-36.267 78.934-78.934v-672c0-42.666-36.267-78.933-78.934-78.933H369.067z" fill="#ffffff" /><path d="M512 870.4c-64 0-115.2-51.2-115.2-115.2S448 640 512 640s115.2 51.2 115.2 115.2S576 870.4 512 870.4z m0-166.4c-27.733 0-51.2 23.467-51.2 51.2 0 27.733 23.467 51.2 51.2 51.2s51.2-23.467 51.2-51.2c0-27.733-23.467-51.2-51.2-51.2z" fill="#61c4fa" /></svg>