<?xml version="1.0" standalone="no"?><!DOCTYPE svg PUBLIC "-//W3C//DTD SVG 1.1//EN" "http://www.w3.org/Graphics/SVG/1.1/DTD/svg11.dtd"><svg class="icon" width="200px" height="200.00px" viewBox="0 0 1024 1024" version="1.1" xmlns="http://www.w3.org/2000/svg"><path d="M844.8 335.36V153.6c0-84.48-69.12-153.6-153.6-153.6H153.6C69.12 0 0 69.12 0 153.6v844.8c0 10.24 6.4 20.48 16.64 24.32 2.56 1.28 6.4 1.28 8.96 1.28 7.68 0 14.08-2.56 19.2-8.96L229.12 806.4h85.76C373.76 934.4 503.04 1024 652.8 1024c204.8 0 371.2-166.4 371.2-371.2 0-134.4-71.68-252.16-179.2-317.44zM217.6 755.2c-7.68 0-14.08 2.56-19.2 8.96L51.2 930.56V153.6c0-56.32 46.08-102.4 102.4-102.4h537.6c56.32 0 102.4 46.08 102.4 102.4v156.16c-43.52-17.92-90.88-28.16-140.8-28.16-108.8 0-207.36 47.36-275.2 122.88v-1.28c0-56.32-46.08-102.4-102.4-102.4s-102.4 46.08-102.4 102.4 46.08 102.4 102.4 102.4c14.08 0 28.16-2.56 40.96-8.96C294.4 544 281.6 597.76 281.6 652.8c0 35.84 5.12 70.4 14.08 102.4H217.6z m108.8-352c0 28.16-23.04 51.2-51.2 51.2s-51.2-23.04-51.2-51.2 23.04-51.2 51.2-51.2 51.2 23.04 51.2 51.2zM652.8 972.8c-176.64 0-320-143.36-320-320s143.36-320 320-320 320 143.36 320 320-143.36 320-320 320z" fill="#ffffff" /><path d="M802.56 551.68L602.88 751.36l-99.84-99.84c-10.24-10.24-25.6-10.24-35.84 0-10.24 10.24-10.24 25.6 0 35.84l117.76 117.76c5.12 5.12 11.52 7.68 17.92 7.68s12.8-2.56 17.92-7.68l217.6-217.6c10.24-10.24 10.24-25.6 0-35.84s-25.6-10.24-35.84 0z" fill="#61c4fa" /></svg>