<?xml version="1.0" standalone="no"?><!DOCTYPE svg PUBLIC "-//W3C//DTD SVG 1.1//EN" "http://www.w3.org/Graphics/SVG/1.1/DTD/svg11.dtd"><svg class="icon" width="200px" height="200.00px" viewBox="0 0 1024 1024" version="1.1" xmlns="http://www.w3.org/2000/svg"><path d="M831.96928 122.88H202.27584A145.92 145.92 0 0 0 56.32 268.48256v65.05472a70.144 70.144 0 0 0 55.23456 68.52096 108.6464 108.6464 0 0 1 0 211.968A70.144 70.144 0 0 0 56.32 682.53184v67.8656A145.92 145.92 0 0 0 202.27584 896h629.69344A145.92 145.92 0 0 0 977.92 750.39744v-68.29056a70.26688 70.26688 0 0 0-54.58432-68.3776 108.57472 108.57472 0 0 1 0-211.38944A70.25664 70.25664 0 0 0 977.92 333.96736v-65.4848A145.92 145.92 0 0 0 831.96928 122.88z m80.74752 211.08736a5.36064 5.36064 0 0 1-4.41344 5.08416 173.568 173.568 0 0 0 0 337.96608 5.37088 5.37088 0 0 1 4.42368 5.08928v68.29056a80.7424 80.7424 0 0 1-80.75776 80.57856H202.27584a80.7424 80.7424 0 0 1-80.75264-80.55808v-67.88608a5.43232 5.43232 0 0 1 4.48512-5.0944 173.65504 173.65504 0 0 0 0-338.80576 5.4272 5.4272 0 0 1-4.48512-5.0944V268.48256A80.7424 80.7424 0 0 1 202.27584 187.904h629.69344a80.7424 80.7424 0 0 1 80.74752 80.55808v65.4848z" fill="#ffffff" /><path d="M569.472 382.1568h65.2032V252.06784h-65.2032V382.1568z m0 195.13856h65.2032V447.2064h-65.2032v130.08896z m0 190.03904h65.2032v-124.98944h-65.2032v124.98944z" fill="#61c4fa" /></svg>