<?xml version="1.0" standalone="no"?><!DOCTYPE svg PUBLIC "-//W3C//DTD SVG 1.1//EN" "http://www.w3.org/Graphics/SVG/1.1/DTD/svg11.dtd"><svg t="1571645532754" class="icon" viewBox="0 0 1077 1024" version="1.1" xmlns="http://www.w3.org/2000/svg" p-id="21907" xmlns:xlink="http://www.w3.org/1999/xlink" width="210.3515625" height="200"><defs><style type="text/css"></style></defs><path d="M1024 431.157895V107.789474a107.789474 107.789474 0 0 0-107.789474-107.789474H107.789474a107.789474 107.789474 0 0 0-107.789474 107.789474v808.421052a107.789474 107.789474 0 0 0 107.789474 107.789474h431.157894v-107.789474H107.789474V107.789474h808.421052v323.368421h107.789474z m0-323.368421a107.789474 107.789474 0 0 0-107.789474-107.789474H107.789474a107.789474 107.789474 0 0 0-107.789474 107.789474v808.421052a107.789474 107.789474 0 0 0 107.789474 107.789474h431.157894v-107.789474H107.789474V107.789474h808.421052v323.368421h107.789474V107.789474zM323.368421 346.812632a53.894737 53.894737 0 0 1 0-107.789474h377.263158a53.894737 53.894737 0 0 1 0 107.789474H323.368421z m0 215.578947a53.894737 53.894737 0 0 1 0-107.789474h133.12a53.894737 53.894737 0 0 1 0 107.789474H323.368421z m0 215.578947a53.894737 53.894737 0 0 1 0-107.789473h53.894737a53.894737 53.894737 0 1 1 0 107.789473H323.368421z m510.221474 67.206737l-150.959158 161.684211a53.894737 53.894737 0 0 1-78.794105-73.566316l156.025263-167.073684-156.025263-167.073685a53.894737 53.894737 0 1 1 78.794105-73.566315l150.959158 161.68421 151.013052-161.68421a53.894737 53.894737 0 0 1 78.794106 73.566315l-156.025264 167.073685 156.025264 167.073684a53.894737 53.894737 0 0 1-78.794106 73.62021l-151.013052-161.68421z" p-id="21908"></path></svg>