<?xml version="1.0" standalone="no"?><!DOCTYPE svg PUBLIC "-//W3C//DTD SVG 1.1//EN" "http://www.w3.org/Graphics/SVG/1.1/DTD/svg11.dtd"><svg class="icon" width="200px" height="200.00px" viewBox="0 0 1024 1024" version="1.1" xmlns="http://www.w3.org/2000/svg"><path d="M791.99787625 289.40590165c55.32555725 0 100.14768454 43.81110183 100.14768453 97.90096228v391.82852041c0 54.08986037-44.82212731 97.95712945-100.14768453 97.95713205H190.94325954c-55.32555725 0-100.20385439-43.81110183-100.20385441-97.95713205V387.30686393c0-54.08986037 44.87829449-97.90096221 100.20385441-97.90096228h600.99844686z m0 58.7518119H190.94325954a39.76700013 39.76700013 0 0 0-39.82316999 34.26252747l-0.28083865 4.88662291v391.82852041c0 19.77116301 15.05304442 36.39691539 35.04888148 38.86831176l5.05512716 0.33700849h600.99844686c20.22050852 0 37.29560378-14.71603593 39.82317002-34.26252753l0.2808386-4.94279272V387.30686393a39.48615887 39.48615887 0 0 0-35.04888149-38.86831174l-5.05512713-0.28083864z" fill="#FFFFFF" /><path d="M629.44745383 146.90748361c27.07301511 0 48.97856603 21.90555094 48.97856603 48.97856603v97.95712943c0 27.01684529-21.90555094 48.97856603-48.97856603 48.97856603H335.63223009a48.97856603 48.97856603 0 0 1-48.97856341-48.97856603v-97.95712943c0-27.07301511 21.90555094-48.97856603 48.97856341-48.97856603h293.81522374z m-9.77324581 58.7518118h-274.26873215v78.35447068h274.26873215v-78.35447068z" fill="#FFFFFF" /><path d="M316.0295713 431.84814994h333.07671119c16.17640687 0 29.3197374 11.96380087 29.31973737 26.73600666 0 14.71603593-13.14333055 26.6798368-29.37590721 26.67983678h-333.02054135c-16.23257406 0-29.37590462-11.96380087-29.37590462-26.67983678 0-14.77220574 13.14333055-26.73600662 29.37590462-26.73600666z" fill="#32C5FF" /></svg>