<?xml version="1.0" standalone="no"?><!DOCTYPE svg PUBLIC "-//W3C//DTD SVG 1.1//EN" "http://www.w3.org/Graphics/SVG/1.1/DTD/svg11.dtd"><svg class="icon" width="200px" height="200.00px" viewBox="0 0 1024 1024" version="1.1" xmlns="http://www.w3.org/2000/svg"><path d="M754.375399 936.139953 633.187444 936.139953c-33.46246 0-60.594489-27.130917-60.594489-60.592007L572.592954 148.45103c0-33.461089 27.132029-60.590983 60.594489-60.590983l121.187955 0c33.46246 0 60.593466 27.129894 60.593466 60.590983l0 727.096916C814.968865 909.010059 787.837859 936.139953 754.375399 936.139953zM754.375399 178.747034c0-16.731056-13.550153-30.29498-30.296221-30.29498l-60.594489 0c-16.746069 0-30.296221 13.564947-30.296221 30.29498l0 666.505933c0 16.745383 13.550153 30.29498 30.296221 30.29498l60.594489 0c16.746069 0 30.296221-13.549597 30.296221-30.29498L754.375399 178.747034zM390.812556 936.139953 269.624601 936.139953c-33.46246 0-60.593466-27.130917-60.593466-60.592007L209.031135 148.45103c0-33.461089 27.131006-60.590983 60.593466-60.590983l121.187955 0c33.46246 0 60.593466 27.129894 60.593466 60.590983l0 727.096916C451.406022 909.010059 424.275017 936.139953 390.812556 936.139953zM390.812556 178.747034c0-16.731056-13.551176-30.29498-30.296221-30.29498l-60.594489 0c-16.746069 0-30.296221 13.564947-30.296221 30.29498l0 666.505933c0 16.745383 13.551176 30.29498 30.296221 30.29498l60.594489 0c16.746069 0 30.296221-13.549597 30.296221-30.29498L390.812556 178.747034z" /></svg>