<?xml version="1.0" standalone="no"?><!DOCTYPE svg PUBLIC "-//W3C//DTD SVG 1.1//EN" "http://www.w3.org/Graphics/SVG/1.1/DTD/svg11.dtd"><svg class="icon" width="200px" height="200.00px" viewBox="0 0 1024 1024" version="1.1" xmlns="http://www.w3.org/2000/svg"><path d="M836.5056 151.82848A91.72992 91.72992 0 0 0 754.95424 102.4h-485.5296a91.67872 91.67872 0 0 0-81.75104 49.80224L61.44 396.6976a92.27264 92.27264 0 0 0 14.592 105.1904l365.60384 390.5792A92.33408 92.33408 0 0 0 508.60032 921.6h0.18944a92.34944 92.34944 0 0 0 66.89792-28.8512l372.02432-394.0864a92.16 92.16 0 0 0 14.66368-105.84064z m63.5904 301.83936l-372.00896 394.0864a26.25024 26.25024 0 0 1-19.27168 8.31488h-0.0768a26.25536 26.25536 0 0 1-19.29728-8.3968l-365.6192-390.58432a26.58304 26.58304 0 0 1-4.20352-30.3104L245.87264 182.272a26.41408 26.41408 0 0 1 23.552-14.336h485.5296a26.43968 26.43968 0 0 1 23.5008 14.24384l125.84448 240.98816a26.5472 26.5472 0 0 1-4.20352 30.49984z" fill="#ffffff" /><path d="M692.39808 410.46016l-182.144 188.416-183.7824-188.51328a32.768 32.768 0 1 0-46.88384 45.75744l186.01984 190.80704a61.8496 61.8496 0 0 0 44.65152 18.83648h0.13312a61.8752 61.8752 0 0 0 44.71296-19.0208l184.3712-190.72a32.768 32.768 0 1 0-47.0784-45.56288z" fill="#61c4fa" /></svg>