<?xml version="1.0" standalone="no"?><!DOCTYPE svg PUBLIC "-//W3C//DTD SVG 1.1//EN" "http://www.w3.org/Graphics/SVG/1.1/DTD/svg11.dtd"><svg t="1606748682810" class="icon" viewBox="0 0 1024 1024" version="1.1" xmlns="http://www.w3.org/2000/svg" p-id="3282" xmlns:xlink="http://www.w3.org/1999/xlink" width="200" height="200"><defs><style type="text/css"></style></defs><path d="M1024 176v144c0 8.8-7.2 16-16 16H240c-8.8 0-16-7.2-16-16V176c0-8.8 7.2-16 16-16h768c8.8 0 16 7.2 16 16zM1024 432v144c0 8.8-7.2 16-16 16H240c-8.8 0-16-7.2-16-16V432c0-8.8 7.2-16 16-16h768c8.8 0 16 7.2 16 16zM1024 688v144c0 8.8-7.2 16-16 16H240c-8.8 0-16-7.2-16-16V688c0-8.8 7.2-16 16-16h768c8.8 0 16 7.2 16 16zM176 176v144c0 8.8-7.2 16-16 16H16c-8.8 0-16-7.2-16-16V176c0-8.8 7.2-16 16-16h144c8.8 0 16 7.2 16 16zM176 432v144c0 8.8-7.2 16-16 16H16c-8.8 0-16-7.2-16-16V432c0-8.8 7.2-16 16-16h144c8.8 0 16 7.2 16 16zM176 688v144c0 8.8-7.2 16-16 16H16c-8.8 0-16-7.2-16-16V688c0-8.8 7.2-16 16-16h144c8.8 0 16 7.2 16 16z" p-id="3283"></path></svg>