<?xml version="1.0" standalone="no"?><!DOCTYPE svg PUBLIC "-//W3C//DTD SVG 1.1//EN" "http://www.w3.org/Graphics/SVG/1.1/DTD/svg11.dtd"><svg class="icon" width="200px" height="200.00px" viewBox="0 0 1024 1024" version="1.1" xmlns="http://www.w3.org/2000/svg"><path d="M689.664 86.016h42.496v14.848h-42.496z" fill="#7AA0C5" /><path d="M694.784 91.136h32.256v4.608h-32.256z" fill="#7AA0C5" /><path d="M528.384 159.744l49.664-49.664v49.664z" fill="#2FB5FE" /><path d="M572.928 122.368v32.256h-32.256zM689.664 91.136h42.496V128h-42.496z" fill="#79c3f5" /><path d="M694.784 95.744h32.256v26.624h-32.256zM689.664 364.544V302.08l7.68 4.608c2.048 1.024 3.584 2.048 5.632 3.584l39.424 26.624-5.632 8.704c-3.584-2.56-7.68-4.096-12.288-4.096-12.8 0-24.064 10.752-24.064 23.04h-10.752z" fill="#79c3f5" /><path d="M739.328 341.504c-19.456-13.312-44.544 3.072-44.544 23.552V311.296c2.048 1.024 3.584 2.048 5.12 3.584l39.424 26.624zM689.664 159.744v-42.496h32.256v-26.112h41.984v68.608z" fill="#79c3f5" /><path d="M758.784 96.256v58.368h-64v-32.256h32.256v-26.112zM567.808 367.616c0-13.824-12.8-23.552-24.576-23.552-4.608 0-8.704 1.024-12.288 3.584l-5.632-8.704 44.544-29.696 0.512-0.512 0.512-0.512 6.656-2.048v60.928h-9.728z" fill="#79c3f5" /><path d="M572.928 313.856v53.76c0-22.528-26.624-35.84-44.544-24.064l44.544-29.696c-0.512 0-0.512 0 0 0z" fill="#79c3f5" /><path d="M264.704 551.936c-20.48 0-36.864-16.896-37.376-36.864 0-20.48 16.896-37.376 37.376-37.376h401.408c19.968 0 37.376 16.896 37.376 37.376s-16.896 37.376-37.376 37.376H264.704z" fill="#ffffff" /><path d="M666.112 482.816H264.704c-17.408 0-32.256 14.336-32.256 32.256 0 17.408 14.336 31.744 32.256 32.256h401.408c17.408 0 32.256-14.336 32.256-32.256 0-17.408-14.336-32.256-32.256-32.256z" fill="#ffffff" /><path d="M543.232 408.064c-10.24 0-20.48-4.096-27.648-11.264-7.68-7.68-12.288-17.92-12.288-29.696v-276.48h196.608v58.368h64v215.04c0 23.04-17.92 41.472-39.424 41.472-8.192 0-16.384-2.56-24.064-7.68l-39.424-27.136c-6.144-4.096-15.36-6.656-25.088-6.656-9.728 0-18.944 2.56-25.088 6.656l-44.032 29.696c-7.168 5.12-15.36 7.68-23.552 7.68z m7.68-73.728c6.144 1.536 12.288 4.608 16.896 8.704v-20.48l-16.896 11.776z m148.992 7.168c4.608-4.608 10.752-7.68 16.896-9.216l-16.896-11.776v20.992z m-121.856-36.864c16.896-9.216 37.376-14.336 57.856-14.336 19.456 0 37.888 4.096 53.76 12.288V159.744h-112.128v144.896z m-10.24-155.136v-14.336l-14.336 14.336h14.336z" fill="#79c3f5" /><path d="M758.784 154.624v209.92c0 28.16-29.184 47.616-55.296 29.696l-39.424-27.136c-14.848-10.24-40.96-10.24-56.32 0l-44.032 29.696c-24.064 15.872-55.296 0-55.296-29.184v-271.36h186.368v58.368h-122.368v-32.256l-32.256 32.256h32.256v159.232h-0.512l-44.032 29.696c17.92-12.288 44.544 1.536 44.544 24.064V313.856c35.328-23.04 86.016-24.064 122.368-2.56v53.248c0-19.968 25.088-36.352 44.544-23.552l-39.424-26.624c-1.536-1.024-3.584-2.56-5.12-3.584V154.624h64z" fill="#79c3f5" /><path d="M264.704 738.304c-18.432 0-33.792-14.336-36.864-32.256h-0.512v-5.12c0-20.48 16.896-37.376 37.376-37.376h215.04c20.48 0 37.376 16.896 37.376 37.376s-16.896 37.376-37.376 37.376h-215.04z" fill="#ffffff" /><path d="M480.256 669.184h-215.04c-17.92 0-32.256 14.336-32.256 32.256 0 17.408 14.336 31.744 32.256 32.256h215.04c17.92 0 32.256-14.336 32.256-32.256s-14.848-32.256-32.256-32.256z" fill="#ffffff" /><path d="M221.184 985.6c-91.136 0-165.376-74.752-164.864-165.888V192.512C56.32 101.376 130.56 27.136 221.696 26.624h581.632c44.032 0 85.504 17.408 116.736 48.64 31.232 31.232 48.128 72.704 48.128 117.248v627.2c0 91.136-74.24 165.376-165.376 165.888H221.184z m0-884.224c-50.176 0-91.136 40.96-91.136 91.648v627.2c0 50.688 40.96 91.648 91.136 91.648h581.632c50.176 0 91.136-40.96 91.136-91.648V192.512c0-50.688-40.96-91.648-91.136-91.648H721.92v-3.072h-22.016v3.072H221.184z" fill="#ffffff" /><path d="M802.816 32.256H221.184c-88.576 0-160.256 72.192-160.256 160.768v627.2c0 88.576 71.168 160.256 159.744 160.768h581.632c88.576 0 160.256-72.192 160.256-160.768V192.512c0.512-88.576-71.168-160.256-159.744-160.256z m96.256 787.456c0 53.248-43.008 96.768-96.256 96.768H221.184c-53.248 0-96.256-43.008-96.256-96.768V192.512c0-53.248 43.008-96.768 96.256-96.768h473.6v-3.072h32.256v3.072h75.776c53.248 0 96.256 43.008 96.256 96.768v627.2z" fill="#ffffff" /></svg>