<?xml version="1.0" standalone="no"?><!DOCTYPE svg PUBLIC "-//W3C//DTD SVG 1.1//EN" "http://www.w3.org/Graphics/SVG/1.1/DTD/svg11.dtd"><svg class="icon" width="200px" height="200.00px" viewBox="0 0 1024 1024" version="1.1" xmlns="http://www.w3.org/2000/svg"><path d="M975.62069562 418.56826903c-5.88104374-32.40115473-25.75503902-53.04200949-50.74143098-53.04200948h-4.47424091a106.72396237 106.72396237 0 0 1-106.65961051-106.66139807c0-19.10892334 8.81799054-40.45228575 9.58485004-40.45228575a66.59164829 66.59164829 0 0 0-22.04765766-80.20385139l-118.48247474-66.20732477-2.23622667-0.70250763a66.4629446 66.4629446 0 0 0-27.22440619-5.17674857c-19.81143098 0-38.98470612 8.11548286-51.51007803 21.34336243-15.40154194 15.46768132-55.91817953 48.57134372-84.61195289 48.57134371-27.92691382 0-67.67669195-30.16492806-85.31624808-49.33641565a73.36468013 73.36468013 0 0 0-52.21079814-21.28079815 63.0755349 63.0755349 0 0 0-26.52189855 5.11239671L231.74552569 136.73935718l-2.17187482 1.46936716c-25.05253136 17.70212045-35.33988903 52.27693755-22.81630469 80.20385139 0 0 9.58663758 22.11200949 9.58663758 40.45228575a106.72396237 106.72396237 0 0 1-106.72396237 106.72396236h-3.64302955c-25.75503902-0.7668595-46.39589377 19.81143098-52.27514999 52.21258571 0 0.7668595-9.58663758 51.5082905-9.58663758 92.02492808 0 40.45228575 9.58663758 91.96236378 9.58663758 91.9623638 5.87925619 31.63429522 26.52011095 52.97944521 51.5082905 52.97944518h4.47424088c58.79256201 0 106.65961052 47.80269665 106.65961053 106.65961054 0 19.17327516-9.58663758 40.45228575-9.58663758 40.45228573-12.52537191 27.99305324-2.93873431 62.56429522 22.04944518 80.2038514l114.77509337 64.7379576 2.23801421 0.7668595a71.06410161 71.06410161 0 0 0 79.43520436-16.16840143c15.46589377-16.93526094 56.68503904-51.5082905 86.84996708-51.50829047s72.08658098 35.27553721 87.55247478 52.21079815a71.704045 71.704045 0 0 0 78.73269666 17.63955615l119.18676998-65.44225283 2.23443909-1.46936718c24.98996706-17.70212045 35.27911232-52.27514999 22.75195287-80.20206384 0 0-9.58485005-22.11200949-9.58485005-40.51663758 0-58.79434956 47.9296128-106.66139807 106.72396239-106.66139808h4.4724533c24.92382765 0 45.56468243-20.57829049 51.44572622-52.21258568 0-0.7668595 9.58663758-51.5082905 9.58663759-92.02492809 0-40.45228575-9.58663758-92.66487145-9.58663759-92.66487147z m-222.90764618 413.47848949l-96.43481712 53.04022193a439.42300893 439.42300893 0 0 0-38.21605905-33.87052188c-36.81104378-27.22440619-72.85344047-41.21914525-105.95710289-41.21914526s-68.38098713 13.99652662-105.19024335 40.45228573a343.24381162 343.24381162 0 0 0-38.34476276 33.10544993l-92.66487146-51.51007802a189.80219625 189.80219625 0 0 0 11.75851242-63.26680291 189.99525178 189.99525178 0 0 0-170.63070864-189.10147609c-2.23622667-15.46410622-6.64611571-45.62903428-6.64611571-69.14605911 0-22.81451715 4.40988905-51.51007806 6.58176387-69.14784664a189.99525178 189.99525178 0 0 0 170.69506048-189.16404044c0-24.92382765-7.34862337-49.20771199-11.75851242-63.26680289l99.31098714-54.38624806c8.11548286 8.05291857 21.34514998 19.81143098 38.34297523 32.33680286 35.98161998 25.75503902 71.32150901 38.98470612 103.6583119 38.98470616 32.40115473 0 66.27167661-12.46280761 102.25150902-38.21784665a318.2556321 318.2556321 0 0 0 38.34297523-31.63250767l94.90109811 52.97765768c-5.11239673 13.93217478-11.82286426 38.21784663-11.82286425 63.26859043a189.99525178 189.99525178 0 0 0 170.75941234 189.09968858c2.17366237 15.46589377 6.58355141 45.62903428 6.58355139 69.14784664 0 22.81451715-4.40988905 52.21079813-6.58355139 69.14605911a190.50649143 190.50649143 0 0 0-170.75941234 189.16404041c-0.70250767 24.92382765 6.64790325 49.20949954 11.82286425 63.26859042z" fill="#FFFFFF" /><path d="M512.10507038 338.36441765a170.82197661 170.82197661 0 0 0-170.69506047 170.63249617 171.46191997 171.46191997 0 0 0 170.63070863 171.52448427 170.95068029 170.95068029 0 0 0 171.46191995-170.75762476 171.59062367 171.59062367 0 0 0-171.39756811-171.39935568z m100.78214187 171.39935568a100.97340985 100.97340985 0 0 1-100.78214187 100.84470618 100.97340985 100.97340985 0 0 1-100.78214186-100.84470618 100.97340985 100.97340985 0 0 1 100.78214186-100.78214186 100.45144487 100.45144487 0 0 1 100.78214187 100.78214186z" fill="#32C5FF" /></svg>