<?xml version="1.0" standalone="no"?><!DOCTYPE svg PUBLIC "-//W3C//DTD SVG 1.1//EN" "http://www.w3.org/Graphics/SVG/1.1/DTD/svg11.dtd"><svg class="icon" width="200px" height="200.00px" viewBox="0 0 1024 1024" version="1.1" xmlns="http://www.w3.org/2000/svg"><path d="M765.958 924.158 133.667 924.158 92.125 924.158l0.74-6.91c14.375-133.375 108.14-253.609 233.327-299.124l3.818-1.39-3.418-2.195c-64.002-40.985-102.207-109.25-102.207-182.645 0-120.992 105.347-227.127 225.424-227.127 120.09 0 225.424 106.135 225.424 227.152 0 73.395-38.215 141.655-102.205 182.655l-3.42 2.18 3.81 1.405c125.19 45.53 218.954 165.735 233.319 299.129l0.745 6.87L765.958 924.158 765.958 924.158z" fill="#ffffff" /><path d="M921.218 261.415l-98.755 0 0-97.667c0-12.442-10.2-22.537-22.785-22.537-12.59 0-22.79 10.095-22.79 22.537l0 97.667-98.745 0c-12.585 0-22.785 10.095-22.785 22.537 0 12.447 10.2 22.537 22.785 22.537l98.745 0 0 97.67c0 12.442 10.2 22.535 22.79 22.535 12.585 0 22.78-10.092 22.78-22.535l0-97.67 98.75 0c12.585 0 22.79-10.09 22.79-22.537C943.998 271.509 933.798 261.415 921.218 261.415z" fill="#ffffff" /></svg>