<?xml version="1.0" standalone="no"?><!DOCTYPE svg PUBLIC "-//W3C//DTD SVG 1.1//EN" "http://www.w3.org/Graphics/SVG/1.1/DTD/svg11.dtd"><svg t="1571622409631" class="icon" viewBox="0 0 1024 1024" version="1.1" xmlns="http://www.w3.org/2000/svg" p-id="12322" xmlns:xlink="http://www.w3.org/1999/xlink" width="200" height="200"><defs><style type="text/css"></style></defs><path d="M388.266667 657.066667V366.933333c0-42.666667 29.866667-55.466667 64-38.4l260.266666 145.066667c34.133333 21.333333 34.133333 55.466667 0 72.533333l-260.266666 145.066667c-38.4 25.6-64 8.533333-64-34.133333zM512 0c281.6 0 512 230.4 512 512s-230.4 512-512 512S0 793.6 0 512 230.4 0 512 0z m0 951.466667c243.2 0 439.466667-196.266667 439.466667-439.466667S755.2 72.533333 512 72.533333C268.8 72.533333 72.533333 268.8 72.533333 512S268.8 951.466667 512 951.466667z" p-id="12323"></path></svg>