<?xml version="1.0" standalone="no"?><!DOCTYPE svg PUBLIC "-//W3C//DTD SVG 1.1//EN" "http://www.w3.org/Graphics/SVG/1.1/DTD/svg11.dtd"><svg class="icon" width="200px" height="200.00px" viewBox="0 0 1024 1024" version="1.1" xmlns="http://www.w3.org/2000/svg"><path d="M271.026228 80.989569 105.626177 80.989569c-22.798239 0-41.343617 18.517749-41.343617 41.327244l0 165.444053c0 22.769586 18.546402 41.327244 41.343617 41.327244L271.026228 329.08811c22.808472 0 41.343617-18.557658 41.343617-41.327244L312.369845 122.316813C312.368822 99.506295 293.8347 80.989569 271.026228 80.989569zM264.65717 275.488355c0 3.212158-2.647293 5.874801-5.903453 5.874801L117.897665 281.363156c-3.25616 0-5.90857-2.663666-5.90857-5.874801L111.989095 134.587278c0-3.252067 2.65241-5.873778 5.90857-5.873778l140.856052 0c3.25616 0 5.903453 2.622734 5.903453 5.873778L264.65717 275.488355z" fill="#61c4fa" /><path d="M271.026228 387.950729 105.626177 387.950729c-22.798239 0-41.343617 18.516726-41.343617 41.326221l0 165.44303c0 22.769586 18.546402 41.329291 41.343617 41.329291L271.026228 636.049271c22.808472 0 41.343617-18.559705 41.343617-41.329291L312.369845 429.27695C312.368822 406.467455 293.8347 387.950729 271.026228 387.950729zM264.65717 582.448492c0 3.213181-2.647293 5.876847-5.903453 5.876847L117.897665 588.325339c-3.25616 0-5.90857-2.664689-5.90857-5.876847l0-140.89903c0-3.25309 2.65241-5.874801 5.90857-5.874801l140.856052 0c3.25616 0 5.903453 2.622734 5.903453 5.874801L264.65717 582.448492z" fill="#61c4fa" /><path d="M271.026228 694.91189 105.626177 694.91189c-22.798239 0-41.343617 18.516726-41.343617 41.327244l0 165.44303c0 22.769586 18.546402 41.328267 41.343617 41.328267L271.026228 943.010431c22.808472 0 41.343617-18.558681 41.343617-41.328267L312.369845 736.239134C312.368822 713.428615 293.8347 694.91189 271.026228 694.91189zM264.65717 889.410676c0 3.212158-2.647293 5.875824-5.903453 5.875824L117.897665 895.2865c-3.25616 0-5.90857-2.664689-5.90857-5.875824L111.989095 748.509598c0-3.252067 2.65241-5.874801 5.90857-5.874801l140.856052 0c3.25616 0 5.903453 2.622734 5.903453 5.874801L264.65717 889.410676z" fill="#61c4fa" /><path d="M918.372799 80.989569 412.445098 80.989569c-22.798239 0-41.343617 18.517749-41.343617 41.327244l0 165.444053c0 22.769586 18.546402 41.327244 41.343617 41.327244l505.927701 0c22.808472 0 41.343617-18.557658 41.343617-41.327244L959.716416 122.316813C959.716416 99.506295 941.181271 80.989569 918.372799 80.989569zM912.004765 275.488355c0 3.212158-2.648316 5.874801-5.904477 5.874801L424.716586 281.363156c-3.25616 0-5.909593-2.663666-5.909593-5.874801L418.806993 134.587278c0-3.252067 2.653433-5.873778 5.909593-5.873778l481.384725 0c3.25616 0 5.904477 2.622734 5.904477 5.873778L912.005788 275.488355z" fill="#ffffff" /><path d="M918.372799 387.950729 412.445098 387.950729c-22.798239 0-41.343617 18.516726-41.343617 41.326221l0 165.44303c0 22.769586 18.546402 41.329291 41.343617 41.329291l505.927701 0c22.808472 0 41.343617-18.559705 41.343617-41.329291L959.716416 429.27695C959.716416 406.467455 941.181271 387.950729 918.372799 387.950729zM912.004765 582.448492c0 3.213181-2.648316 5.876847-5.904477 5.876847L424.716586 588.325339c-3.25616 0-5.909593-2.664689-5.909593-5.876847l0-140.89903c0-3.25309 2.653433-5.874801 5.909593-5.874801l481.384725 0c3.25616 0 5.904477 2.622734 5.904477 5.874801L912.005788 582.448492z" fill="#ffffff" /><path d="M918.372799 694.91189 412.445098 694.91189c-22.798239 0-41.343617 18.516726-41.343617 41.327244l0 165.44303c0 22.769586 18.546402 41.328267 41.343617 41.328267l505.927701 0c22.808472 0 41.343617-18.558681 41.343617-41.328267L959.716416 736.239134C959.716416 713.428615 941.181271 694.91189 918.372799 694.91189zM912.004765 889.410676c0 3.212158-2.648316 5.875824-5.904477 5.875824L424.716586 895.2865c-3.25616 0-5.909593-2.664689-5.909593-5.875824L418.806993 748.509598c0-3.252067 2.653433-5.874801 5.909593-5.874801l481.384725 0c3.25616 0 5.904477 2.622734 5.904477 5.874801L912.005788 889.410676z" fill="#ffffff" /></svg>