<?xml version="1.0" standalone="no"?><!DOCTYPE svg PUBLIC "-//W3C//DTD SVG 1.1//EN" "http://www.w3.org/Graphics/SVG/1.1/DTD/svg11.dtd"><svg class="icon" width="200px" height="200.00px" viewBox="0 0 1024 1024" version="1.1" xmlns="http://www.w3.org/2000/svg"><path d="M531.2 951.466667H183.466667c-55.466667 0-100.266667-40.533333-100.266667-89.6V202.666667c0-49.066667 44.8-89.6 100.266667-89.6 23.466667 0 40.533333-14.933333 40.533333-36.266667 0-17.066667-17.066667-34.133333-40.533333-34.133333C81.066667 42.666667 0 115.2 0 202.666667v659.2c0 87.466667 83.2 160 183.466667 160h347.733333c23.466667 0 40.533333-14.933333 40.533333-36.266667 0-19.2-19.2-34.133333-40.533333-34.133333z" fill="#61c4fa" /><path d="M838.4 42.666667c-23.466667 0-40.533333 14.933333-40.533333 36.266666 0 19.2 19.2 36.266667 40.533333 36.266667 55.466667 0 100.266667 40.533333 100.266667 89.6v326.4c0 19.2 19.2 36.266667 40.533333 36.266667 23.466667 0 40.533333-14.933333 40.533333-36.266667V202.666667c2.133333-87.466667-78.933333-160-181.333333-160z m0 0M349.866667 305.066667c-23.466667 0-40.533333 14.933333-40.533334 36.266666v34.133334c0 19.2 19.2 36.266667 40.533334 36.266666 23.466667 0 40.533333-14.933333 40.533333-36.266666V341.333333c0-19.2-19.2-36.266667-40.533333-36.266666zM674.133333 305.066667c-23.466667 0-40.533333 14.933333-40.533333 36.266666v34.133334c0 19.2 19.2 36.266667 40.533333 36.266666 23.466667 0 40.533333-14.933333 40.533334-36.266666V341.333333c0-19.2-19.2-36.266667-40.533334-36.266666z m0 0M614.4 454.4c-19.2-10.666667-44.8-6.4-57.6 10.666667 0 0-17.066667 23.466667-44.8 23.466666-25.6 0-42.666667-21.333333-44.8-21.333333-12.8-17.066667-38.4-21.333333-57.6-10.666667-19.2 10.666667-25.6 32-12.8 49.066667 14.933333 21.333333 55.466667 55.466667 115.2 55.466667 57.6 0 100.266667-34.133333 115.2-55.466667 10.666667-17.066667 4.266667-38.4-12.8-51.2z m0 0M386.133333 192h249.6C697.6 192 746.666667 149.333333 746.666667 96S697.6 0 635.733333 0H386.133333c-61.866667 0-110.933333 42.666667-110.933333 96S324.266667 192 386.133333 192z m0-119.466667h249.6c14.933333 0 27.733333 10.666667 27.733334 23.466667 0 12.8-12.8 23.466667-27.733334 23.466667H386.133333c-14.933333 0-27.733333-10.666667-27.733333-23.466667 0-12.8 12.8-23.466667 27.733333-23.466667z m0 0M936.533333 614.4c-59.733333-29.866667-136.533333-23.466667-192 14.933333-55.466667-38.4-132.266667-46.933333-192-14.933333-46.933333 23.466667-76.8 64-85.333333 108.8-6.4 46.933333 10.666667 91.733333 46.933333 123.733333l183.466667 160c12.8 10.666667 27.733333 17.066667 44.8 17.066667s34.133333-6.4 44.8-17.066667l183.466667-160c38.4-32 55.466667-76.8 46.933333-123.733333-4.266667-46.933333-34.133333-85.333333-81.066667-108.8z m-23.466666 181.333333l-170.666667 147.2-170.666667-147.2c-19.2-17.066667-27.733333-40.533333-25.6-64 4.266667-23.466667 19.2-44.8 44.8-55.466666 12.8-6.4 25.6-8.533333 40.533334-8.533334 23.466667 0 49.066667 8.533333 66.133333 25.6l14.933333 12.8c8.533333 6.4 19.2 10.666667 29.866667 10.666667 10.666667 0 21.333333-4.266667 29.866667-10.666667l14.933333-12.8c29.866667-25.6 74.666667-32 106.666667-14.933333 25.6 12.8 40.533333 32 44.8 55.466667 4.266667 21.333333-6.4 44.8-25.6 61.866666z m0 0" fill="#ffffff" /></svg>