<?xml version="1.0" standalone="no"?><!DOCTYPE svg PUBLIC "-//W3C//DTD SVG 1.1//EN" "http://www.w3.org/Graphics/SVG/1.1/DTD/svg11.dtd"><svg class="icon" width="200px" height="191.40px" viewBox="0 0 1070 1024" version="1.1" xmlns="http://www.w3.org/2000/svg"><path d="M559.429818 629.248c-4.445091 54.574545 7.074909 111.010909 36.538182 162.024727a279.086545 279.086545 0 0 0 231.424 139.473455c6.818909 29.998545 10.426182 61.207273 10.426182 93.253818H0c0-231.354182 187.554909-418.909091 418.909091-418.909091 49.291636 0 96.581818 8.517818 140.520727 24.157091zM418.909091 558.545455c-154.228364 0-279.272727-125.044364-279.272727-279.272728S264.680727 0 418.909091 0s279.272727 125.044364 279.272727 279.272727-125.044364 279.272727-279.272727 279.272728z m523.636364 274.478545a209.454545 209.454545 0 1 1-209.454546-362.775273 209.454545 209.454545 0 0 1 209.454546 362.775273z m23.272727 29.509818a34.909091 34.909091 0 0 1 47.685818 12.8l46.545455 80.593455a34.909091 34.909091 0 0 1-60.462546 34.909091l-46.545454-80.616728a34.909091 34.909091 0 0 1 12.776727-47.685818zM837.818182 791.272727a139.636364 139.636364 0 1 0 0-279.272727 139.636364 139.636364 0 0 0 0 279.272727z" fill="#ffffff" /></svg>