<?xml version="1.0" standalone="no"?><!DOCTYPE svg PUBLIC "-//W3C//DTD SVG 1.1//EN" "http://www.w3.org/Graphics/SVG/1.1/DTD/svg11.dtd"><svg class="icon" width="200px" height="200.00px" viewBox="0 0 1024 1024" version="1.1" xmlns="http://www.w3.org/2000/svg"><path d="M640 960.25H191.8l0.22-32.22c0.76-110.75 40.68-214.87 112.38-293.2 35.17-38.41 76.13-68.6 121.74-89.71C473.61 523.14 524.03 512 576.01 512c46 0 91.01 8.79 133.77 26.13 16.38 6.64 24.27 25.3 17.63 41.68-6.64 16.38-25.3 24.27-41.68 17.63-35.08-14.23-72-21.44-109.72-21.44-165.31 0-302.5 140.95-318.45 320.25H640c17.67 0 32 14.33 32 32s-14.33 32-32 32z" fill="#ffffff" /><path d="M575 886.84l-98.77-116.73 98.78-185.56 37.21 69.93c8.3 15.6 2.39 34.98-13.22 43.28a31.787 31.787 0 0 1-13.75 3.73l-32.15 60.4 29.73 35.13c7.03 0.18 14.05 2.66 19.84 7.56 13.49 11.42 15.17 31.61 3.76 45.1L575 886.84zM576 507c-111.93 0-203-91.07-203-203s91.07-203 203-203 203 91.07 203 203-91.07 203-203 203z m0-342c-76.64 0-139 62.36-139 139s62.36 139 139 139 139-62.36 139-139-62.36-139-139-139z" fill="#61c4fa" /><path d="M96.03 895.98c-0.94 0-1.89-0.04-2.84-0.13-17.59-1.55-30.6-17.03-29.07-34.62 0.27-3.14 7.09-77.87 43.64-167.22 21.6-52.8 49.19-99.93 82.01-140.09 33.39-40.85 72.23-74.49 115.8-100.32-24.46-40.37-59.75-115.11-50.52-199.22 7.71-70.25 44.39-131.96 109.03-183.41 13.83-11.01 33.96-8.72 44.97 5.11 11.01 13.83 8.72 33.96-5.11 44.97-50.8 40.44-79.49 87.65-85.27 140.32-10.65 97.08 57.53 182.67 58.22 183.52a32.037 32.037 0 0 1 6.34 27.15 31.98 31.98 0 0 1-17.36 21.81C277.94 536.09 211.27 611 167.71 716.49c-33.29 80.62-39.77 149.63-39.83 150.32-1.49 16.63-15.46 29.17-31.85 29.17zM773 958.34c-8.92 0-17.43-3.72-23.49-10.27L594.38 780.4c-9.18-9.92-11.14-24.54-4.89-36.52l59.26-113.67A31.992 31.992 0 0 1 677.13 613h191.76c11.93 0 22.86 6.63 28.38 17.21l59.26 113.67a31.987 31.987 0 0 1-4.89 36.52L796.49 948.08A32.021 32.021 0 0 1 773 958.34zM656.66 753.48L773 879.23l116.34-125.75L849.47 677H696.53l-39.87 76.48z" fill="#ffffff" /><path d="M778.18 815.92h-13.74l-44.18-88.76c-1.1-2.1-2.65-3.59-4.65-4.46-2-0.87-4.9-1.31-8.68-1.31v-7.18h59.32v7.18h-5.92c-2.58 0-4.54 0.29-5.88 0.87-1.34 0.58-2.02 1.43-2.02 2.55 0 0.4 0.1 0.9 0.29 1.48 0.19 0.58 0.56 1.43 1.11 2.55l27.4 56.96 23.61-48.91c0.55-1.25 0.97-2.44 1.27-3.56 0.3-1.12 0.45-2.21 0.45-3.29 0-2.95-1.26-5.08-3.78-6.37-2.52-1.3-6.77-2.01-12.75-2.15v-7.31h49.03l-0.08 7.04c-4.72 0.13-8.94 1.59-12.67 4.36-3.73 2.77-6.91 6.82-9.54 12.14l-38.59 78.17z" fill="#61c4fa" /></svg>