<?xml version="1.0" standalone="no"?><!DOCTYPE svg PUBLIC "-//W3C//DTD SVG 1.1//EN" "http://www.w3.org/Graphics/SVG/1.1/DTD/svg11.dtd"><svg class="icon" width="200px" height="200.00px" viewBox="0 0 1024 1024" version="1.1" xmlns="http://www.w3.org/2000/svg"><path d="M623.38527983 591.55117522a330.47480518 330.47480518 0 0 0-190.8682889-59.64634067c-169.39560346 0-306.5481021 123.7235502-317.45486024 278.32686248h317.38669409v-139.19751269c0-43.89970705 35.71963761-79.48300907 79.48300909-79.48300912h111.38527663z m117.38399642 0h168.91843388c43.89970705 0 79.48300907 35.58330204 79.48300583 79.48300912v238.58535636c0 43.96787318-35.65146825 79.55117522-79.48300583 79.55117526H512a79.55117522 79.55117522 0 0 1-79.48300907-79.55117526v-19.83666837h-392.64333286a362.58157774 362.58157774 0 0 1-4.97620785-59.64633745c0-165.23740262 111.58978158-305.66192899 267.1474332-356.99186474a238.58535956 238.58535956 0 1 1 261.01238437 0 398.77838495 398.77838495 0 0 1 177.78017461 118.40650508zM512 889.64653999c0 10.97492754 9.06624254 19.90483455 19.76850223 19.90483455h358.21887188c10.90675818 0 19.76850223-9.06624254 19.70033602-19.90483455v-198.70752113a19.97300396 19.97300396 0 0 0-19.76850227-19.97300393h-358.28704118a19.90483455 19.90483455 0 0 0-19.70033281 19.97300393L512 889.64653999z m-79.55117522-457.26588141a159.03418434 159.03418434 0 1 0 0-318.06836871 159.03418434 159.03418434 0 0 0 0 318.06836871z" fill="#FFFFFF" /><path d="M551.74150295 740.63294066c0-16.42830505 13.29261284-29.78908727 29.99358894-29.78908723h258.2175263a29.8572534 29.8572534 0 0 1 0 59.64634071h-258.28569243a29.78908727 29.78908727 0 0 1-29.92542281-29.85725348zM551.74150295 840.02078429c0-16.42830505 13.29261284-29.78908727 29.99358894-29.78908726h258.2175263a29.8572534 29.8572534 0 0 1 0 59.64634076h-258.28569243a29.78908727 29.78908727 0 0 1-29.92542281-29.8572535z" fill="#32C5FF" /></svg>