<?xml version="1.0" standalone="no"?><!DOCTYPE svg PUBLIC "-//W3C//DTD SVG 1.1//EN" "http://www.w3.org/Graphics/SVG/1.1/DTD/svg11.dtd"><svg class="icon" width="200px" height="200.00px" viewBox="0 0 1024 1024" version="1.1" xmlns="http://www.w3.org/2000/svg"><path d="M413.013333 75.093333h-266.24C107.178667 75.093333 75.093333 107.178667 75.093333 146.773333v265.557334C75.093333 452.608 107.178667 484.693333 146.773333 484.693333h265.557334C452.608 484.693333 484.693333 452.608 484.693333 413.013333v-266.24C484.693333 107.178667 452.608 75.093333 413.013333 75.093333zM430.08 377.514667c0 29.354667-23.893333 52.565333-52.565333 52.565333H182.272c-29.354667 0-52.565333-23.893333-52.565333-52.565333V182.272c0-29.354667 23.893333-52.565333 52.565333-52.565333h194.56c29.354667 0 52.565333 23.893333 52.565333 52.565333v195.242667zM413.013333 539.306667h-266.24C107.178667 539.306667 75.093333 571.392 75.093333 610.986667v265.557333c0 39.594667 32.085333 71.68 71.68 71.68h265.557334c39.594667 0 71.68-32.085333 71.68-71.68V610.986667C484.693333 571.392 452.608 539.306667 413.013333 539.306667z m17.066667 302.421333c0 29.354667-23.893333 52.565333-52.565333 52.565333H182.272c-29.354667 0-52.565333-23.893333-52.565333-52.565333V646.485333c0-29.354667 23.893333-52.565333 52.565333-52.565333h194.56c29.354667 0 52.565333 23.893333 52.565333 52.565333v195.242667zM877.226667 75.093333h-266.24C571.392 75.093333 539.306667 107.178667 539.306667 146.773333v265.557334C539.306667 452.608 571.392 484.693333 610.986667 484.693333h265.557333c39.594667 0 71.68-32.085333 71.68-71.68v-266.24c0.682667-39.594667-31.402667-71.68-70.997333-71.68z m17.066666 302.421334c0 29.354667-23.893333 52.565333-52.565333 52.565333H646.485333c-29.354667 0-52.565333-23.893333-52.565333-52.565333V182.272c0-29.354667 23.893333-52.565333 52.565333-52.565333h194.56c29.354667 0 52.565333 23.893333 52.565334 52.565333v195.242667z" fill="#ffffff" /><path d="M948.906667 566.613333c0-15.018667-12.288-27.306667-27.306667-27.306666H566.613333c-15.018667 0-27.306667 12.288-27.306666 27.306666s12.288 27.306667 27.306666 27.306667h354.986667c15.018667 0 27.306667-12.288 27.306667-27.306667zM875.861333 744.106667c0-15.018667-12.288-27.306667-27.306666-27.306667H566.613333c-15.018667 0-27.306667 12.288-27.306666 27.306667s12.288 27.306667 27.306666 27.306666h281.941334c15.018667 0 27.306667-12.288 27.306666-27.306666zM720.896 921.6c0-15.018667-12.288-27.306667-27.306667-27.306667H566.613333c-15.018667 0-27.306667 12.288-27.306666 27.306667s12.288 27.306667 27.306666 27.306667h126.976c15.701333 0 27.306667-12.288 27.306667-27.306667z" fill="#61c4fa" /></svg>