<?xml version="1.0" standalone="no"?><!DOCTYPE svg PUBLIC "-//W3C//DTD SVG 1.1//EN" "http://www.w3.org/Graphics/SVG/1.1/DTD/svg11.dtd"><svg t="1658888889536" class="icon" viewBox="0 0 1024 1024" version="1.1" xmlns="http://www.w3.org/2000/svg" p-id="9638" id="mx_n_1658888889537" xmlns:xlink="http://www.w3.org/1999/xlink" width="32" height="32"><defs><style type="text/css">@font-face { font-family: feedback-iconfont; src: url("//at.alicdn.com/t/font_1031158_u69w8yhxdu.woff2?t=1630033759944") format("woff2"), url("//at.alicdn.com/t/font_1031158_u69w8yhxdu.woff?t=1630033759944") format("woff"), url("//at.alicdn.com/t/font_1031158_u69w8yhxdu.ttf?t=1630033759944") format("truetype"); }
</style></defs><path d="M657.135518 609.659227" p-id="9639"></path><path d="M917.504524 483.036341l-98.283444-98.283444L819.22108 245.760287c0-22.62223-18.33867-40.959877-40.959877-40.959877L639.267569 204.800409l-98.283444-98.283444c-15.995299-15.996322-41.929971-15.996322-57.925271 0l-98.283444 98.283444L245.780753 204.800409c-22.621207 0-40.959877 18.337647-40.959877 40.959877l0 138.992611-98.283444 98.283444c-15.995299 15.996322-15.995299 41.930995 0 57.926294l98.283444 98.283444 0 138.993634c0 22.621207 18.33867 40.959877 40.959877 40.959877l138.994658 0 98.282421 98.282421c15.995299 15.996322 41.929971 15.996322 57.925271 0l98.282421-98.282421 138.994658 0c22.621207 0 40.959877-18.33867 40.959877-40.959877L819.220057 639.247102l98.283444-98.283444C933.499823 524.968359 933.499823 499.032664 917.504524 483.036341zM512.021489 798.720164c-36.297694 0-70.870094-7.318686-102.400205-20.47124 96.198969-40.129976 163.839509-135.026276 163.839509-245.768473s-67.641563-205.638497-163.839509-245.768473c31.530111-13.152555 66.10251-20.47124 102.400205-20.47124 147.039891 0 266.239713 119.199823 266.239713 266.239713S659.06138 798.720164 512.021489 798.720164z" p-id="9640"></path></svg>