<?xml version="1.0" standalone="no"?><!DOCTYPE svg PUBLIC "-//W3C//DTD SVG 1.1//EN" "http://www.w3.org/Graphics/SVG/1.1/DTD/svg11.dtd"><svg t="1607184242618" class="icon" viewBox="0 0 1024 1024" version="1.1" xmlns="http://www.w3.org/2000/svg" p-id="3875" xmlns:xlink="http://www.w3.org/1999/xlink" width="200" height="200"><defs><style type="text/css"></style></defs><path d="M432 356.16A32 32 0 0 0 384 384v256a32 32 0 0 0 48 27.84l224-128a32 32 0 0 0 0-55.68z m16 228.48v-145.6L576 512z" fill="#231815" p-id="3876"></path><path d="M864 32H160a128 128 0 0 0-128 128v704a128 128 0 0 0 128 128h704a128 128 0 0 0 128-128v-128H96V288h896V160a128 128 0 0 0-128-128z m-96 768h160v64a64 64 0 0 1-64 64h-96z m-224 0h160v128h-160z m-224 0h160v128h-160z m-64 0v128H160a64 64 0 0 1-64-64v-64zM256 224H96V160a64 64 0 0 1 64-64h96z m224 0h-160V96h160z m224 0h-160V96h160z m224 0h-160V96h96a64 64 0 0 1 64 64z" fill="#231815" p-id="3877"></path><path d="M960 384m-32 0a32 32 0 1 0 64 0 32 32 0 1 0-64 0Z" fill="#231815" p-id="3878"></path><path d="M960 480a32 32 0 0 0-32 32v128a32 32 0 0 0 64 0v-128a32 32 0 0 0-32-32z" fill="#231815" p-id="3879"></path></svg>