<?xml version="1.0" standalone="no"?><!DOCTYPE svg PUBLIC "-//W3C//DTD SVG 1.1//EN" "http://www.w3.org/Graphics/SVG/1.1/DTD/svg11.dtd"><svg class="icon" width="200px" height="200.00px" viewBox="0 0 1024 1024" version="1.1" xmlns="http://www.w3.org/2000/svg"><path d="M48.242 920.632V105.463c0-34.323 27.139-62.16 60.464-62.16h659.718c33.325 0 60.464 27.937 60.464 62.16v283.663h39.91V105.563c0-56.972-44.998-103.268-100.374-103.268H108.706C53.33 2.295 8.331 48.59 8.331 105.563v815.169c0 56.972 45 103.268 100.375 103.268h539.189v-41.108H108.706c-33.425 0-60.464-27.937-60.464-62.26z" fill="#ffffff" /><path d="M132.952 196.26H578.55v39.91h-445.6z m0 153.754h563.933v39.91H132.952z m0 154.253h232.877v39.91H132.952z m810.38-8.78C892.844 445 825.595 417.163 754.155 417.163S615.468 445 564.881 495.487c-50.486 50.487-78.324 117.736-78.324 189.175s27.838 138.689 78.324 189.175 117.736 78.324 189.176 78.324 138.688-27.837 189.175-78.324 78.324-117.735 78.324-189.175c0.1-71.44-27.738-138.589-78.225-189.175zM754.155 912.351c-125.518 0-227.688-102.17-227.688-227.689s102.17-227.688 227.688-227.688 227.689 102.17 227.689 227.688-102.17 227.689-227.689 227.689z" fill="#ffffff" /><path d="M870.695 579.897c-2.196-18.358-12.472-28.635-30.831-30.83-10.876 1.097-18.958 5.388-24.346 12.97l-60.065 86.007-60.065-86.006c-5.388-7.583-13.57-11.874-24.345-12.971-18.459 2.195-28.735 12.472-30.83 30.83 0 6.486 2.194 12.472 6.485 17.86l51.983 73.036h-34.123c-11.974 1.098-18.459 7.084-19.457 17.86 1.098 10.876 7.583 16.763 19.457 17.86h59.965v27.638h-60.065c-11.973 1.098-18.459 7.084-19.457 17.86 1.098 10.875 7.583 16.762 19.457 17.86h60.065v50.287c1.097 18.458 11.374 27.638 30.83 27.638s29.734-9.18 30.831-27.638V769.87h60.065c11.874-1.098 18.36-6.985 19.457-17.86-1.098-10.776-7.583-16.762-19.457-17.86h-60.065v-27.638h60.065c11.874-1.097 18.36-6.984 19.457-17.86-1.098-10.776-7.583-16.762-19.457-17.86h-34.123l51.983-73.036c4.39-5.388 6.586-11.374 6.586-17.86z" fill="#61c4fa" /></svg>