<?xml version="1.0" standalone="no"?><!DOCTYPE svg PUBLIC "-//W3C//DTD SVG 1.1//EN" "http://www.w3.org/Graphics/SVG/1.1/DTD/svg11.dtd"><svg class="icon" width="200px" height="200.00px" viewBox="0 0 1024 1024" version="1.1" xmlns="http://www.w3.org/2000/svg"><path d="M437.89918881 56.16261737v381.73657144H56.16261737V56.16261737h381.73657144z m-63.60003982 63.60003985h-254.53649177v254.53649177h254.53649177v-254.53649177zM437.89918881 565.16743793v381.73657151H56.16261737v-381.73657151h381.73657144z m-63.60003982 63.60003992h-254.53649177v254.46832557h254.53649177V628.76747785zM946.90400944 56.16261737v381.73657144h-381.73657151V56.16261737h381.73657151z m-63.66820602 63.60003985H628.76747785v254.53649177h254.46832557v-254.53649177z" fill="#FFFFFF" /><path d="M953.24356329 701.29742467c23.1768623 23.1768623 23.1768623 60.80518174 0 83.98204722l-167.9640914 167.9640914a59.3736696 59.3736696 0 0 1-83.98204722 0L533.33333333 785.27947189a59.3736696 59.3736696 0 0 1 0-83.98204722L701.29742467 533.33333333a59.3736696 59.3736696 0 0 1 83.98204722 0l167.9640914 167.96409134z m-41.9910221 41.99102524l-167.96409128-167.96409453-167.96409453 167.96409453 167.96409453 167.96409128 167.96409128-167.96409128z" fill="#32C5FF" /></svg>