<?xml version="1.0" standalone="no"?><!DOCTYPE svg PUBLIC "-//W3C//DTD SVG 1.1//EN" "http://www.w3.org/Graphics/SVG/1.1/DTD/svg11.dtd"><svg class="icon" width="200px" height="200.00px" viewBox="0 0 1024 1024" version="1.1" xmlns="http://www.w3.org/2000/svg"><path d="M512 422.56457527c-40.55950987 0.40900349-75.87014396 28.97108031-86.36789872 69.87142428-10.49775469 40.90034716 6.3395538 84.11837963 41.17301509 105.72739742v345.81243539a45.19488363 45.19488363 0 0 0 90.38976726 0v-345.81243539c34.83346128-21.60901781 51.67077301-64.75888406 41.17301509-105.65922807-10.49775469-40.90034716-45.80838883-69.53059022-86.36789872-69.93959363z" fill="#32C5FF" /><path d="M513.36334595 34.82928404a480.3064114 480.3064114 0 0 0-461.08324823 353.37899958 483.30576804 483.30576804 0 0 0 162.3743783 504.84661651c16.36013886 13.15627724 51.39810189 16.83730854 69.5305902-8.18006943 17.65531549-20.38200742 6.13505212-53.37495308-5.18070957-62.03219218a386.64461634 386.64461634 0 0 1-137.0843324-409.41247523A384.25876175 384.25876175 0 0 1 512 130.53609642a384.25876175 384.25876175 0 0 1 370.07997575 282.89406687 386.71278256 386.71278256 0 0 1-123.85988571 398.77838501c-15.20129467 12.67910761-30.87976215 31.22059945-17.10997965 67.8264101 14.92862673 26.92606294 56.57881465 22.7678589 74.91580465 7.49839486a483.30576804 483.30576804 0 0 0 156.10299068-497.96172684A480.3064114 480.3064114 0 0 0 513.36334595 34.82928404z" fill="#FFFFFF" /><path d="M806.07349617 503.13825919c0.20450178-139.74285173-97.61549419-259.51270283-232.45030748-284.66641635-134.69847776-25.08554732-267.76093843 51.73893918-316.02334812 182.48371456a288.34744759 288.34744759 0 0 0 69.93959371 308.86578742c14.79229115 14.31512155 53.64762098 23.31319791 74.50679797-2.59035326 16.22380334-20.65467531 0.13633558-54.80646523-9.54341213-64.00904334a195.09465602 195.09465602 0 0 1-53.17045138-192.02712996c22.49519097-83.50487444 97.07015835-141.37886567 182.00654492-141.37886888 85.00455595 0 159.51135398 57.87399124 182.07471113 141.37886888a195.1628222 195.1628222 0 0 1-50.17109151 189.02777015c-10.42958851 10.42958851-31.15242998 34.42445779-11.11126308 69.59875641 16.15563714 28.28940575 60.66884937 15.33763018 76.61998477-0.27266799a291.61947535 291.61947535 0 0 0 87.254075-206.41041764z" fill="#FFFFFF" /></svg>