<?xml version="1.0" standalone="no"?><!DOCTYPE svg PUBLIC "-//W3C//DTD SVG 1.1//EN" "http://www.w3.org/Graphics/SVG/1.1/DTD/svg11.dtd"><svg class="icon" width="200px" height="200.00px" viewBox="0 0 1024 1024" version="1.1" xmlns="http://www.w3.org/2000/svg"><path d="M591.75822222 270.22222222H257.93422222c-12.62933333 0-22.75555555-10.46755555-22.75555555-23.43822222 0-12.97066667 10.12622222-23.43822222 22.75555555-23.43822222h333.824c12.62933333 0 22.75555555 10.46755555 22.75555556 23.43822222 0 12.74311111-10.35377778 23.43822222-22.75555556 23.43822222z m-79.64444444 153.37244445H257.93422222c-12.62933333 0-22.75555555-10.46755555-22.75555555-23.43822222 0-12.97066667 10.12622222-23.43822222 22.75555555-23.43822223h254.17955556c12.62933333 0 22.75555555 10.46755555 22.75555555 23.43822223 0 12.85688889-10.35377778 23.43822222-22.75555555 23.43822222z m-105.35822223 153.6H257.93422222c-12.62933333 0-22.75555555-10.46755555-22.75555555-23.43822222 0-12.97066667 10.12622222-23.43822222 22.75555555-23.43822223h149.04888889c12.62933333 0 22.75555555 10.46755555 22.75555556 23.43822223-0.22755555 12.74311111-10.35377778 23.43822222-22.98311112 23.43822222z m0 0" fill="#ffffff" /><path d="M789.73155555 30.15111111H163.27111111c-34.58844445 0-62.69155555 27.98933333-62.69155556 62.69155556v795.648c0 34.58844445 27.98933333 62.69155555 62.69155556 62.69155555h302.53511111c12.97066667 0 23.43822222-10.46755555 23.43822223-23.43822222 0-12.97066667-10.46755555-23.43822222-23.43822223-23.43822222H178.85866667c-17.18044445 0-31.28888889-14.10844445-31.28888889-31.28888889v-764.58666667c0-17.18044445 14.10844445-31.28888889 31.28888889-31.28888889h595.17155555c17.18044445 0 31.28888889 14.10844445 31.28888889 31.28888889v421.888c0 12.97066667 10.46755555 23.43822222 23.43822222 23.43822223 12.97066667 0 23.43822222-10.46755555 23.43822222-23.43822223V92.72888889c0.11377778-34.58844445-27.87555555-62.57777778-62.464-62.57777778z m0 0" fill="#ffffff" /><path d="M678.22933333 544.54044445c-114.34666667 0-207.07555555 92.72888889-207.07555555 207.07555555s92.72888889 207.07555555 207.07555555 207.07555555 207.07555555-92.72888889 207.07555556-207.07555555-92.61511111-207.07555555-207.07555556-207.07555555z m0 391.85066666c-102.05866667 0-184.77511111-82.71644445-184.77511111-184.77511111s82.71644445-184.77511111 184.77511111-184.77511111 184.77511111 82.71644445 184.77511112 184.77511111c0.11377778 102.05866667-82.71644445 184.77511111-184.77511112 184.77511111z m0 0" fill="#558DF7" /><path d="M678.22933333 967.90755555c-119.23911111 0-216.29155555-97.05244445-216.29155555-216.29155555s97.05244445-216.29155555 216.29155555-216.29155555 216.29155555 97.05244445 216.29155556 216.29155555S797.58222222 967.90755555 678.22933333 967.90755555z m0-414.1511111c-109.11288889 0-197.85955555 88.74666667-197.85955555 197.85955555s88.74666667 197.85955555 197.85955555 197.85955555S876.08888889 860.72888889 876.08888889 751.616s-88.74666667-197.85955555-197.85955556-197.85955555z m0 391.85066666c-106.95111111 0-193.99111111-87.04-193.99111111-193.99111111s87.04-193.99111111 193.99111111-193.99111111 193.99111111 87.04 193.99111112 193.99111111c0.11377778 106.95111111-86.92622222 193.99111111-193.99111112 193.99111111z m0-369.55022222c-96.82488889 0-175.55911111 78.73422222-175.55911111 175.55911111 0 96.82488889 78.73422222 175.55911111 175.55911111 175.55911111 96.82488889 0 175.55911111-78.73422222 175.55911112-175.55911111 0.11377778-96.82488889-78.73422222-175.55911111-175.55911112-175.55911111z" fill="#61c4fa" /><path d="M776.87466667 793.94133333l-87.04-50.28977778V623.50222222c0-6.71288889-5.00622222-12.17422222-11.264-12.17422222s-11.264 5.46133333-11.264 12.17422222v125.49688889c-0.34133333 2.38933333 0.11377778 4.77866667 1.13777778 6.82666667 1.59288889 3.52711111 4.89244445 6.144 8.6471111 6.71288889l88.51911112 51.08622222c4.89244445 2.84444445 11.49155555 0.79644445 14.56355555-4.66488889 3.072-5.46133333 1.59288889-12.17422222-3.29955555-15.01866667z m0 0" fill="#558DF7" /><path d="M770.38933333 825.344c-3.52711111 0-7.05422222-0.91022222-10.12622222-2.73066667l-87.04-50.176c-6.25777778-1.59288889-11.49155555-5.91644445-14.336-11.94666666-1.93422222-3.64088889-2.73066667-7.96444445-2.27555556-12.06044445V623.50222222c0-12.51555555 9.78488889-22.75555555 21.84533334-22.75555555s21.84533333 10.24 21.84533333 22.75555555v114.11911111l81.69244445 47.21777778c4.89244445 2.84444445 8.41955555 7.73688889 9.67111111 13.42577778 1.25155555 5.46133333 0.34133333 11.03644445-2.50311111 15.92888889-3.86844445 6.82666667-11.15022222 11.15022222-18.77333334 11.15022222z m-91.81866666-203.54844445c-0.11377778 0-0.79644445 0.56888889-0.79644445 1.5928889v126.29333333l-0.11377777 0.68266667v0.34133333l0.34133333 0.56888889c0.22755555 0.45511111 0.45511111 0.56888889 0.56888889 0.68266666l2.048 0.22755556 89.88444444 51.88266666c0.11377778-0.11377778 0.34133333-0.22755555 0.56888889-0.56888888s0.22755555-0.56888889 0.22755555-0.68266667L679.25333333 749.79555555V623.50222222c0-1.13777778-0.56888889-1.59288889-0.68266666-1.70666667z" fill="#61c4fa" /></svg>