<?xml version="1.0" standalone="no"?><!DOCTYPE svg PUBLIC "-//W3C//DTD SVG 1.1//EN" "http://www.w3.org/Graphics/SVG/1.1/DTD/svg11.dtd"><svg t="1612257343380" class="icon" viewBox="0 0 1024 1024" version="1.1" xmlns="http://www.w3.org/2000/svg" p-id="8699" xmlns:xlink="http://www.w3.org/1999/xlink" width="200" height="200"><defs><style type="text/css"></style></defs><path d="M227.46 511.43c0 29.2-15.58 56.18-40.87 70.78a81.728 81.728 0 0 1-81.73 0A81.74 81.74 0 0 1 64 511.43c0-45.14 36.59-81.73 81.73-81.73 45.13 0.01 81.73 36.59 81.73 81.73z m326.91-70.78a81.777 81.777 0 0 0-81.73 0 81.719 81.719 0 0 0-40.86 70.78c0 45.14 36.59 81.73 81.73 81.73s81.73-36.59 81.73-81.73c-0.01-29.19-15.59-56.18-40.87-70.78z m367.77 0a81.777 81.777 0 0 0-81.73 0 81.728 81.728 0 0 0-40.87 70.78c0 29.2 15.58 56.18 40.87 70.78a81.728 81.728 0 0 0 81.73 0A81.719 81.719 0 0 0 963 511.43c0-29.19-15.58-56.18-40.86-70.78z" p-id="8700"></path></svg>