<?xml version="1.0" standalone="no"?><!DOCTYPE svg PUBLIC "-//W3C//DTD SVG 1.1//EN" "http://www.w3.org/Graphics/SVG/1.1/DTD/svg11.dtd"><svg t="1658886966021" class="icon" viewBox="0 0 1024 1024" version="1.1" xmlns="http://www.w3.org/2000/svg" p-id="4596" xmlns:xlink="http://www.w3.org/1999/xlink" width="32" height="32"><defs><style type="text/css">@font-face { font-family: feedback-iconfont; src: url("//at.alicdn.com/t/font_1031158_u69w8yhxdu.woff2?t=1630033759944") format("woff2"), url("//at.alicdn.com/t/font_1031158_u69w8yhxdu.woff?t=1630033759944") format("woff"), url("//at.alicdn.com/t/font_1031158_u69w8yhxdu.ttf?t=1630033759944") format("truetype"); }
</style></defs><path d="M187.732193 400.009604m47.96861 0l287.811664 0q47.968611 0 47.96861 47.96861l0 0q0 47.968611-47.96861 47.968611l-287.811664 0q-47.968611 0-47.96861-47.968611l0 0q0-47.968611 47.96861-47.96861Z" p-id="4597" fill="#d81e06"></path><path d="M187.732193 591.884046m47.96861 0l159.895369 0q47.968611 0 47.96861 47.96861l0 0q0 47.968611-47.96861 47.968611l-159.895369 0q-47.968611 0-47.96861-47.968611l0 0q0-47.968611 47.96861-47.96861Z" p-id="4598" fill="#d81e06"></path><path d="M895.748884 269.534983v68.435218a46.689448 46.689448 0 0 1-92.739313 0v-38.374889a63.958147 63.958147 0 0 0-63.958148-63.958147h-191.874442a92.739314 92.739314 0 0 0 7.674978-26.862422 69.714381 69.714381 0 0 0 0-16.629118 105.530943 105.530943 0 0 0-11.512467-49.247774A110.647595 110.647595 0 0 0 512 101.325055a111.287176 111.287176 0 0 0-127.916295 0 110.647595 110.647595 0 0 0-35.176981 41.572796 105.530943 105.530943 0 0 0-12.791629 49.247774 69.714381 69.714381 0 0 0 0 16.629118 92.739314 92.739314 0 0 0 7.674977 26.862422H157.032282a63.958147 63.958147 0 0 0-63.958147 63.958147v566.669186a63.958147 63.958147 0 0 0 63.958147 63.958148h116.403828a46.689448 46.689448 0 0 1 0 93.378895H128.251116a127.916295 127.916295 0 0 1-127.916295-127.916295V270.814146a127.916295 127.916295 0 0 1 127.916295-127.916295h134.951691a37.095725 37.095725 0 0 1 0-8.95414 191.874442 191.874442 0 0 1 365.840603 0 37.095725 37.095725 0 0 1 0 8.95414H767.83259a127.916295 127.916295 0 0 1 127.916294 126.637132z" p-id="4599" fill="#d81e06"></path><path d="M538.22284 839.402076l67.156055 22.385352q-29.420748 76.110195-51.806099 132.393365l-63.958148-24.943678a803.953913 803.953913 0 0 0 48.608192-129.835039z m19.827026-31.979073V591.884046h90.180988a166.930765 166.930765 0 0 1-8.314559-20.466607 447.707032 447.707032 0 0 0-26.862422-42.851959l63.958147-24.304096c7.674978 8.954141 18.547863 23.664515 33.897818 44.770703l19.827026 26.862422-35.816562 15.989537h90.180987l13.431211-20.466607a725.924973 725.924973 0 0 0 42.851959-63.958148l80.587266 17.908282c-5.756233 6.395815-13.431211 15.349955-22.385352 27.502003l-33.897818 40.293633H959.707032v215.538957h-191.874442a743.833254 743.833254 0 0 1 63.958147 63.958147l-53.724844 47.329029c-26.862422-30.060329-51.806099-57.562333-74.191451-81.226847l33.897818-29.420748z m294.84706 76.749776a161.814113 161.814113 0 0 0 19.827025 10.872885 453.463265 453.463265 0 0 0 49.887355 24.943678 168.849509 168.849509 0 0 1-20.466607 56.28317 85.703917 85.703917 0 0 1-85.064336 47.329029h-121.52048c-55.643588 0-81.226847-24.943677-81.226847-74.191451V831.727099h72.272706v97.216384c0 17.908281 10.872885 26.862422 33.258237 26.862422h81.226847c23.664515 0 38.374888-8.314559 42.851959-24.943678a83.145592 83.145592 0 0 1 4.47707-22.385352 143.26625 143.26625 0 0 1 4.477071-24.304096z m22.385351-141.987087v-85.064336H639.916295v85.064336z m31.339492 124.078806l63.958148-24.943677c17.908281 42.212377 35.176981 84.424755 51.806099 127.916294l-62.678984 20.466608c-17.2687-34.5374-33.258237-75.470614-53.085263-123.439225z" p-id="4600" fill="#d81e06"></path></svg>