<?xml version="1.0" standalone="no"?><!DOCTYPE svg PUBLIC "-//W3C//DTD SVG 1.1//EN" "http://www.w3.org/Graphics/SVG/1.1/DTD/svg11.dtd"><svg class="icon" width="200px" height="200.00px" viewBox="0 0 1024 1024" version="1.1" xmlns="http://www.w3.org/2000/svg"><path d="M939.19762963 201.31081482c23.30168889 0 38.83614815 15.53445925 38.83614815 38.83614815v543.70607406c0 23.30168889-15.53445925 38.83614815-38.83614815 38.83614815H84.80237037c-23.30168889 0-38.83614815-15.53445925-38.83614815-38.83614815V240.14696297c0-23.30168889 15.53445925-38.83614815 38.83614815-38.83614815h854.39525926z m-38.83614815 77.67229629H123.63851852v466.03377778h776.72296296V278.98311111z" fill="#ffffff" /><path d="M682.87905185 364.42263703c15.53445925-11.65084445 42.71976297-11.65084445 54.3706074 7.76722964 11.65084445 15.53445925 11.65084445 38.83614815-3.8836148 50.48699258l-3.88361482 3.88361483-194.18074074 155.34459259c-11.65084445 11.65084445-31.06891852 11.65084445-42.71976297 3.88361481l-3.88361481-3.88361481-194.18074074-155.34459259c-15.53445925-11.65084445-19.41807408-38.83614815-7.76722962-54.37060741 11.65084445-15.53445925 34.95253333-19.41807408 50.48699258-7.76722964l3.88361482 3.88361482 170.87905185 135.92651852 170.87905185-139.81013334z" fill="#61c4fa" /></svg>