<?xml version="1.0" standalone="no"?><!DOCTYPE svg PUBLIC "-//W3C//DTD SVG 1.1//EN" "http://www.w3.org/Graphics/SVG/1.1/DTD/svg11.dtd"><svg class="icon" width="200px" height="200.00px" viewBox="0 0 1024 1024" version="1.1" xmlns="http://www.w3.org/2000/svg"><path d="M814.545455 46.545455H209.454545a93.090909 93.090909 0 0 0-93.090909 93.090909v744.727272a93.090909 93.090909 0 0 0 93.090909 93.090909h232.727273a93.090909 93.090909 0 0 0 82.385455-50.501818l4.189091-4.887272A232.727273 232.727273 0 0 1 821.061818 581.818182a89.367273 89.367273 0 0 0 54.923637-23.272727A93.090909 93.090909 0 0 0 907.636364 488.727273V139.636364a93.090909 93.090909 0 0 0-93.090909-93.090909zM523.636364 581.818182h-186.181819a34.909091 34.909091 0 0 1 0-69.818182h186.181819a34.909091 34.909091 0 0 1 0 69.818182z m139.636363-209.454546h-325.818182a34.909091 34.909091 0 0 1 0-69.818181h325.818182a34.909091 34.909091 0 0 1 0 69.818181z" fill="#ffffff" /><path d="M787.781818 617.425455A186.181818 186.181818 0 1 0 907.636364 791.272727a184.552727 184.552727 0 0 0-119.854546-173.847272zM802.909091 814.545455H744.727273v58.181818a23.272727 23.272727 0 0 1-46.545455 0V814.545455h-58.181818a23.272727 23.272727 0 0 1 0-46.545455H698.181818v-58.181818a23.272727 23.272727 0 0 1 46.545455 0V768h58.181818a23.272727 23.272727 0 0 1 0 46.545455z" fill="#ffffff" /></svg>