<?xml version="1.0" standalone="no"?><!DOCTYPE svg PUBLIC "-//W3C//DTD SVG 1.1//EN" "http://www.w3.org/Graphics/SVG/1.1/DTD/svg11.dtd"><svg class="icon" width="200px" height="185.68px" viewBox="0 0 1103 1024" version="1.1" xmlns="http://www.w3.org/2000/svg"><path d="M918.15384594 992L327.38461531 992C245.82153875 992 179.69230812 925.87076938 179.69230812 844.30769188L179.69230812 327.38461531C179.69230812 245.82153875 245.82153875 179.69230812 327.38461531 179.69230812L918.15384594 179.69230812C999.71692345 179.69230812 1065.84615406 245.82153875 1065.84615406 327.38461531L1065.84615406 844.30769188C1065.84615406 925.87076938 999.71692345 992 918.15384594 992ZM992 327.38461531C992 286.58461531 958.95384594 253.53846125 918.15384594 253.53846125L327.38461531 253.53846125C286.58461531 253.53846125 253.53846125 286.58461531 253.53846125 327.38461531L253.53846125 844.30769188C253.53846125 885.10769188 286.58461531 918.15384594 327.38461531 918.15384594L918.15384594 918.15384594C958.95384594 918.15384594 992 885.10769188 992 844.30769188L992 327.38461531ZM327.38461531 733.53846125L918.15384594 733.53846125 918.15384594 807.38461531 327.38461531 807.38461531 327.38461531 733.53846125ZM327.38461531 548.92307655L770.46153875 548.92307655 770.46153875 622.76923063 327.38461531 622.76923063 327.38461531 548.92307655ZM327.38461531 364.30769187L548.92307655 364.30769187 548.92307655 438.15384594 327.38461531 438.15384594 327.38461531 364.30769187ZM770.46153875 105.84615406L179.69230812 105.84615406C138.92923063 105.84615406 105.84615406 138.89230812 105.84615406 179.69230812L105.84615406 696.61538469C105.84615406 723.86461531 120.8 747.42153875 142.76923062 760.23384594L142.76923062 839.06461531C79.18769187 822.59692345 32 765.36615406 32 696.61538469L32 179.69230812C32 98.12923062 98.12923062 32 179.69230812 32L770.46153875 32C839.21230812 32 896.44307657 79.18769187 912.94769188 142.76923062L834.08 142.76923062C821.26769187 120.8 797.71076937 105.84615406 770.46153875 105.84615406Z" /></svg>
