<?xml version="1.0" standalone="no"?><!DOCTYPE svg PUBLIC "-//W3C//DTD SVG 1.1//EN" "http://www.w3.org/Graphics/SVG/1.1/DTD/svg11.dtd"><svg class="icon" width="200px" height="200.00px" viewBox="0 0 1024 1024" version="1.1" xmlns="http://www.w3.org/2000/svg"><path d="M906.64440215 424.40775222c-5.51347851-30.37608256-24.14534908-49.7268839-47.57009154-49.72688389h-4.19460086a100.05371472 100.05371472 0 0 1-99.99338485-99.99506069c0-17.91461563 8.26686613-37.92401789 8.98579691-37.92401789a62.42967027 62.42967027 0 0 0-20.66967905-75.19111068l-111.07732007-62.06936697-2.09646251-0.65860091a62.30901056 62.30901056 0 0 0-25.5228808-4.85320178c-18.57321654 0-36.54816199 7.60826518-48.29069815 20.00940228-14.43894557 14.50095124-52.42329331 45.53563474-79.32370584 45.53563473-26.18148171 0-63.4468987-28.27962006-79.98398257-46.25288968a68.77938762 68.77938762 0 0 0-48.94762326-19.95074826 59.13331397 59.13331397 0 0 0-24.86427989 4.79287191L209.26143034 160.19314736l-2.03613264 1.37753171c-23.48674815 16.59573792-33.13114597 49.00962895-21.39028565 75.19111068 0 0 8.98747273 20.7300089 8.98747273 37.92401789a100.05371472 100.05371472 0 0 1-100.05371472 100.05371471h-3.4153402c-24.14534908-0.71893078-43.49615041 18.57321654-49.00795312 48.9492991 0 0.71893078-8.98747273 48.28902234-8.98747273 86.27337008 0 37.92401789 8.98747273 86.21471604 8.98747273 86.21471606 5.51180268 29.65715177 24.86260402 49.66822988 48.28902234 49.66822986h4.19460083c55.11802688 0 99.99338486 44.81502811 99.99338487 99.99338488 0 17.97494546-8.98747273 37.92401789-8.98747273 37.92401787-11.74253617 26.24348741-2.75506342 58.65402677 20.67135486 75.19111069l107.60165003 60.69183525 2.09813832 0.71893078a66.62259526 66.62259526 0 0 0 74.47050409-15.15787634c14.49927541-15.87680713 53.1422241-48.28902234 81.42184414-48.28902232s67.58116967 33.07081613 82.0804451 48.94762327a67.22254219 67.22254219 0 0 0 73.81190312 16.53708389l111.73759686-61.35211203 2.09478665-1.37753173c23.42809412-16.59573792 33.0741678-49.00795312 21.32995581-75.18943485 0 0-8.98579692-20.7300089-8.98579692-37.98434773 0-55.11970271 44.934012-99.99506069 100.05371474-99.9950607h4.19292497c23.36608842 0 42.71688978-19.29214733 48.23036833-48.94929908 0-0.71893078 8.98747273-48.28902234 8.98747274-86.27337008 0-37.92401789-8.98747273-86.87331698-8.98747274-86.873317z m-208.97591829 387.63608389l-90.40764105 49.72520806a411.95907087 411.95907087 0 0 0-35.82755536-31.75361426c-34.51035354-25.5228808-68.30010044-38.64294867-99.33478396-38.64294868s-64.10717543 13.12174371-98.61585314 37.92401787a321.79107339 321.79107339 0 0 0-35.94821509 31.03635931l-86.87331699-48.29069814a177.93955898 177.93955898 0 0 0 11.02360539-59.31262773 178.12054854 178.12054854 0 0 0-159.96628935-177.28263384c-2.0964625-14.49759958-6.23073348-42.77721964-6.23073348-64.82443041 0-21.38860983 4.13427098-48.29069818 6.17040363-64.82610623a178.12054854 178.12054854 0 0 0 160.0266192-177.34128791c0-23.36608842-6.88933441-46.13222999-11.02360539-59.31262771l93.10405044-50.98710756c7.60826518 7.54961116 20.01107811 18.57321654 35.94653928 30.31575269 33.73276873 24.14534908 66.8639147 36.54816199 97.1796674 36.54816202 30.37608256 0 62.12969682-11.68388213 95.86078971-35.82923123a298.36465509 298.36465509 0 0 0 35.94653928-29.65547594l88.96977948 49.66655407c-4.79287193 13.06141386-11.08393524 35.82923122-11.08393524 59.31430353a178.12054854 178.12054854 0 0 0 160.08694907 177.28095804c2.03780847 14.49927541 6.17207945 42.77721964 6.17207943 64.82610623 0 21.38860983-4.13427098 48.94762325-6.17207943 64.82443041a178.59983572 178.59983572 0 0 0-160.08694907 177.34128789c-0.65860094 23.36608842 6.2324093 46.13390582 11.08393524 59.31430352z"  /><path d="M472.09850349 349.21664155a160.14560307 160.14560307 0 0 0-160.02661919 159.96796516 160.74554997 160.74554997 0 0 0 159.96628934 160.804204 160.26626277 160.26626277 0 0 0 160.74554995-160.08527321 160.86620969 160.86620969 0 0 0-160.6852201-160.68689595z m94.483258 160.68689595a94.66257173 94.66257173 0 0 1-94.483258 94.54191204 94.66257173 94.66257173 0 0 1-94.483258-94.54191204 94.66257173 94.66257173 0 0 1 94.483258-94.483258 94.17322957 94.17322957 0 0 1 94.483258 94.483258z" /></svg>
