<?xml version="1.0" standalone="no"?><!DOCTYPE svg PUBLIC "-//W3C//DTD SVG 1.1//EN" "http://www.w3.org/Graphics/SVG/1.1/DTD/svg11.dtd"><svg class="icon" width="128px" height="128.00px" viewBox="0 0 1024 1024" version="1.1" xmlns="http://www.w3.org/2000/svg"><path d="M555.69066667 14.41185223c29.12711111 0 53.39970333 21.84533333 60.6814811 50.97244444l16.99081557 97.09037 43.69066667 19.41807445L757.15318557 123.6385189c21.84533333-16.99081443 53.39970333-14.56355555 75.24503665 4.85451776l2.42725888 2.42726001 60.68148224 60.68148111c21.84533333 21.84533333 24.27259221 53.39970333 7.28177778 77.67229667l-55.82696334 80.09955556 19.41807445 43.69066666 97.09036999 16.99081444c26.69985223 4.8545189 48.54518557 29.12711111 50.97244445 55.82696334v89.80859222c0 29.12711111-21.84533333 53.39970333-50.97244445 60.6814811l-97.09036999 16.99081557-19.41807445 43.69066667 55.82696334 80.09955556c16.99081443 21.84533333 14.56355555 53.39970333-4.8545189 75.24503665l-2.42725888 2.42725888-60.68148224 60.68148224c-21.84533333 21.84533333-53.39970333 24.27259221-77.67229553 7.28177778l-80.09955556-55.82696334-43.69066667 19.41807445-16.99081557 97.09036999c-4.8545189 26.69985223-29.12711111 48.54518557-55.8269622 50.97244445h-89.80859336c-29.12711111 0-53.39970333-21.84533333-60.6814811-50.97244445l-16.99081444-97.09036999-43.69066666-19.41807445-82.52681558 53.39970332c-21.84533333 16.99081443-53.39970333 14.56355555-75.24503665-4.85451776l-2.42725888-2.42726001-60.68148224-60.68148111c-21.84533333-21.84533333-24.27259221-53.39970333-7.28177778-77.67229667l55.82696334-80.09955556-19.41807445-43.69066666-97.09036999-16.99081444c-26.69985223-4.8545189-48.54518557-29.12711111-50.97244445-55.82696334v-89.80859222c0-29.12711111 21.84533333-53.39970333 50.97244445-60.6814811l97.09036999-16.99081557 19.41807445-43.69066667L123.6385189 266.84681443c-16.99081443-21.84533333-14.56355555-53.39970333 2.42725888-72.81777777l2.42725888-2.42725888 60.68148224-60.68148111c21.84533333-21.84533333 53.39970333-24.27259221 77.67229553-7.28177777l80.09955556 55.8269622 43.69066667-19.41807331 16.99081557-97.09037113c4.8545189-26.69985223 29.12711111-48.54518557 55.8269622-50.97244445H555.69066667z m-43.69066667 364.08888889c-72.81777778 0-133.49925888 60.6814811-133.49925888 133.49925888s60.6814811 133.49925888 133.49925888 133.49925888 133.49925888-60.6814811 133.49925888-133.49925888-60.6814811-133.49925888-133.49925888-133.49925888z" /></svg>