<?xml version="1.0" standalone="no"?><!DOCTYPE svg PUBLIC "-//W3C//DTD SVG 1.1//EN" "http://www.w3.org/Graphics/SVG/1.1/DTD/svg11.dtd"><svg class="icon" width="200px" height="200.00px" viewBox="0 0 1024 1024" version="1.1" xmlns="http://www.w3.org/2000/svg"><path d="M930.14937881 956.7208918H144.88200195a77.42692354 77.42692354 0 0 1-77.42692353-77.42692354V218.6135501a77.42692354 77.42692354 0 0 1 77.42692353-77.42692354h734.14801055a77.42692354 77.42692354 0 0 1 77.51490908 77.42692354v711.7117998a26.3955419 26.3955419 0 0 1-26.39554277 26.3955419z m-758.87183496-52.79108467h681.35692675a51.03138164 51.03138164 0 0 0 51.11936631-51.03138077V245.00909199a51.11936631 51.11936631 0 0 0-51.11936631-51.03138164H171.27754385a51.03138164 51.03138164 0 0 0-51.03138077 51.03138165v607.88933437a50.94339609 50.94339609 0 0 0 51.03138077 51.03138076z m-51.03138076 0" fill="#ffffff" /><path d="M916.77563809 391.85629121h-807.7035876c-14.16560801 0-25.60367549-11.96597901-25.60367637-26.65949766s11.43806836-26.74748232 25.60367637-26.7474832h807.70358759c14.16560801 0 25.69166104 11.96597901 25.69166104 26.7474832s-11.52605302 26.65949766-25.69166104 26.65949766z m-1e-8 0M235.06677089 267.88522872c-14.78150332 0-26.74748232-9.3264249-26.74748232-20.76449327V88.04360146c0-11.43806836 11.96597901-20.76449326 26.74748233-20.76449326s26.65949766 9.3264249 26.65949766 20.76449326v159.07713399c0 11.43806836-11.96597901 20.76449326-26.65949766 20.76449326z m1e-8 0M795.6200999 267.88522872c-14.69351865 0-26.65949766-9.3264249-26.65949766-20.76449327V88.04360146c0-11.43806836 11.96597901-20.76449326 26.65949766-20.76449326s26.65949766 9.3264249 26.65949766 20.76449326v159.07713399c0 11.43806836-11.87799434 20.76449326-26.65949766 20.76449326z m0 0M464.18007588 767.55283964a26.65949766 26.65949766 0 0 1-18.91680469-7.83067675L353.93469541 668.30560156a26.6902919 26.6902919 0 1 1 37.74562558-37.74562471l72.49975489 72.49975489 163.82833154-163.82833067a26.6902919 26.6902919 0 0 1 37.74562558 37.74562471L483.0088959 759.72216289a26.65949766 26.65949766 0 0 1-18.82882002 7.83067676z m0 1e-8" fill="#79c3f5" /></svg>