<?xml version="1.0" standalone="no"?><!DOCTYPE svg PUBLIC "-//W3C//DTD SVG 1.1//EN" "http://www.w3.org/Graphics/SVG/1.1/DTD/svg11.dtd"><svg class="icon" width="200px" height="200.00px" viewBox="0 0 1024 1024" version="1.1" xmlns="http://www.w3.org/2000/svg"><path d="M640.8360936 989.17071596a147.17308369 147.17308369 0 0 1-43.35436799-6.1350521c-22.01802128-4.90804165-166.73708093-42.26369318-340.83622752-216.29466711-174.03097722-173.96281103-212.00013393-320.38605396-216.36283655-341.10889547a177.09850324 177.09850324 0 0 1 30.81159589-150.99045047l59.03283548-71.91644162a94.27530023 94.27530023 0 0 1 71.98461108-35.78780381c27.94857162 0.40900349 54.32929554 13.22444666 71.98461102 35.03796303l88.82191952 106.68173992c26.7897274 33.81095261 29.31191442 80.77818567 6.13505207 117.24766083l-32.31127424 48.87591493c6.61222171 54.05662448 31.08426384 104.29588529 69.53059021 142.94671334a248.8104464 248.8104464 0 0 0 142.94671334 69.53059021l49.01225046-32.58394222a102.11453239 102.11453239 0 0 1 117.45216255 6.33955385l106.06823477 89.57176029a91.27594036 91.27594036 0 0 1 0 144.37822557l-72.52995008 57.94215744a176.82583541 176.82583541 0 0 1-108.38592001 36.26497339z m-438.99706073-748.81718736a20.79101084 20.79101084 0 0 0-15.67846432 8.86174078l-58.96466926 71.91644487c-17.10997964 24.54020827-23.04052995 55.21546869-16.36013893 84.39104755v4.15820407c0 1.22701043 28.83474478 137.56150204 195.77633064 305.1847561 167.00975206 167.62325728 304.02591504 195.77632743 305.52559343 195.7763274a18.60965796 18.60965796 0 0 1 4.90804162 1.43151219c29.0392465 6.54405559 59.51000513 0.40900349 83.70937617-16.90547469l71.98461105-58.69199822a18.13248835 18.13248835 0 0 0 0-31.08426385l-106.47723827-88.82192275a29.65275172 29.65275172 0 0 0-29.85725342-1.70418008l-59.30550336 39.40066886a39.67333678 39.67333678 0 0 1-20.24567187 6.33955381 316.22784986 316.22784986 0 0 1-294.75516759-295.57317771c0-7.3620625 2.18135292-14.51962321 6.33955379-20.58650597l39.40066887-59.23733718a28.63024301 28.63024301 0 0 0-1.70418324-29.58458558l-88.14024815-106.6817367a21.26818052 21.26818052 0 0 0-16.15563716-8.5890729z" fill="#FFFFFF" /><path d="M952.42857287 548.6739769a36.74214631 36.74214631 0 0 1-36.67398006-36.6739769 404.36809802 404.36809802 0 0 0-403.95909459-403.75459281 36.74214631 36.74214631 0 1 1 0-73.41612315A477.98872292 477.98872292 0 0 1 989.17071596 512a36.74214631 36.74214631 0 0 1-36.74214309 36.6739769z" fill="#32C5FF" /><path d="M746.83615899 550.71899426a35.9923055 35.9923055 0 0 1-35.99230556-35.99230551 201.77504715 201.77504715 0 0 0-201.57054218-201.57054218 35.9923055 35.9923055 0 0 1 0-71.98461105 273.75965815 273.75965815 0 0 1 273.55515323 273.55515323 35.9923055 35.9923055 0 0 1-35.99230549 35.99230551z" fill="#32C5FF" /></svg>