<?xml version="1.0" standalone="no"?><!DOCTYPE svg PUBLIC "-//W3C//DTD SVG 1.1//EN" "http://www.w3.org/Graphics/SVG/1.1/DTD/svg11.dtd"><svg class="icon" width="128px" height="128.00px" viewBox="0 0 1024 1024" version="1.1" xmlns="http://www.w3.org/2000/svg"><path d="M715.92394978 342.53452629c5.12755485 0 10.22367517 0.11410091 15.29534465 0.3038811-32.29870877-147.89457919-184.7363675-259.88113408-367.93935873-259.88113409-206.70545123 0-374.27195904 142.55395726-374.27195902 318.40093185 0 102.73972452 57.2146233 194.09613484 145.99910627 252.3155456l-37.393664 110.29832703 123.82277859-67.89935899c43.74838612 15.25459401 91.63467776 23.68641821 141.84257308 23.6864182 9.67878429 0 19.27141149-0.31203102 28.76390969-0.92677916-10.47399879-27.73932941-16.14877241-57.29961643-16.1487724-87.98577664C375.89623694 471.61759061 528.13130752 342.53452629 715.92394978 342.53452629zM492.44217118 240.35599246c30.52432384 0 55.27025095 24.74476317 55.27025093 55.27025095 0 30.52432384-24.74476317 55.27025095-55.27025095 55.27025095s-55.27025095-24.74476317-55.27025095-55.27025095C437.1730853 265.10075563 461.91784846 240.35599246 492.44217118 240.35599246zM235.31808769 350.89532929c-30.52432384 0-55.27025095-24.74476317-55.27025096-55.27025096 0-30.52432384 24.74476317-55.27025095 55.27025096-55.27025095s55.27025095 24.74476317 55.27025094 55.27025095C290.58833863 326.14940217 265.84357547 350.89532929 235.31808769 350.89532929z"  /><path d="M1031.92294173 630.84774627c0-147.97840839-141.4769846-267.93805597-315.99899195-267.93805596S399.92612295 482.86933789 399.92612295 630.84774627s141.4769846 267.93805597 315.99899192 267.93805597c36.64385821 0 71.82070444-5.30685724 104.54787415-15.03221305l108.04308764 59.24515385-31.40103737-92.6231643C978.62384299 801.91761863 1031.92294173 721.66508885 1031.92294173 630.84774627zM617.196387 592.3992303c-24.43971698 0-44.25136242-19.81164431-44.25136243-44.25136243 0-24.43971698 19.81164431-44.25136242 44.25136241-44.25136241 24.43971698 0 44.25136242 19.81164431 44.25136243 44.25136241C661.44774827 572.58758599 641.63610398 592.3992303 617.196387 592.3992303zM823.06354518 592.3992303c-24.43971698 0-44.25136242-19.81164431-44.25136243-44.25136243 0-24.43971698 19.81164431-44.25136242 44.25136241-44.25136241 24.43971698 0 44.25136242 19.81164431 44.25136243 44.25136241C867.31490645 572.58758599 847.50209821 592.3992303 823.06354518 592.3992303z"  /></svg>