<?xml version="1.0" standalone="no"?><!DOCTYPE svg PUBLIC "-//W3C//DTD SVG 1.1//EN" "http://www.w3.org/Graphics/SVG/1.1/DTD/svg11.dtd"><svg class="icon" width="200px" height="200.00px" viewBox="0 0 1024 1024" version="1.1" xmlns="http://www.w3.org/2000/svg"><path d="M476.17947875 582.254592a246.22312107 246.22312107 0 0 0 125.4621184-214.99885795C601.64159715 231.85544533 492.88096427 121.69671111 359.19334969 121.69671111s-242.45407289 110.15873422-242.45407289 245.56484836a246.22312107 246.22312107 0 0 0 125.4621184 214.99303253A341.21828125 341.21828125 0 0 0 22.66453333 901.81395342h63.91653262c0-152.24158435 122.29308871-276.12501333 272.62976-276.12501333s272.62976 123.86012729 272.62976 276.12501333h63.91653263a341.21828125 341.21828125 0 0 0-219.57763983-319.55936142z m-295.52366933-214.99885795a178.54919111 178.54919111 0 1 1 178.53754027 180.82110577 179.89486365 179.89486365 0 0 1-178.53754027-180.82110577zM963.55177813 121.69671111h-370.12402631v64.73791716h338.16576v651.13074346h-173.4344704V902.30328889h205.39273671a32.16798151 32.16798151 0 0 0 31.95826632-32.36604587V154.06275698A32.16798151 32.16798151 0 0 0 963.55177813 121.69671111z" fill="#ffffff" /><path d="M878.33167645 357.49815182h-202.54993067V292.7427584h202.54993067v64.75539342z m0 186.87954489h-202.54993067V479.62230329h202.54993067v64.75539342z m0 186.87954489H739.19146667v-64.75539342h139.16933688v64.75539342z" fill="#61c4fa" /></svg>