<?xml version="1.0" standalone="no"?><!DOCTYPE svg PUBLIC "-//W3C//DTD SVG 1.1//EN" "http://www.w3.org/Graphics/SVG/1.1/DTD/svg11.dtd"><svg class="icon" width="200px" height="200.00px" viewBox="0 0 1024 1024" version="1.1" xmlns="http://www.w3.org/2000/svg"><path d="M635.15093333 812.864H116.09493333c-10.66346667 0-19.5488-8.88533333-19.5488-19.5488V254.80426667l353.6736 353.6736c15.10826667 15.1072 35.54666667 23.99573333 57.76213334 23.99573333 22.2144 0 42.6528-8.88853333 57.75893333-23.99573333l361.67466667-361.67253334v284.72426667c0 16.88213333 14.21866667 31.1008 31.10293333 31.1008 16.8832 0 31.10186667-14.21866667 31.10186667-31.1008V229.03466667c0-45.32053333-36.43946667-81.75573333-81.75466667-81.75573334H116.09493333c-45.32053333 0-81.75466667 36.4352-81.75466666 81.75573334v564.28053333c0 45.31946667 36.43306667 81.7472 81.75466666 81.7472h519.056c16.88426667 0 31.10186667-14.21226667 31.10186667-31.1008 0-16.88533333-14.2176-31.0976-31.10186667-31.0976z m240.72533334-602.4928L521.31093333 564.048c-7.10826667 7.10933333-20.43733333 7.10933333-27.5456 0L140.08746667 210.3712h735.7888z" fill="#ffffff" /><path d="M946.10773333 596.24106667c-28.80746667-26.0544-65.8336-39.26506667-110.04373333-39.26506667-47.33653333 0-86.73173333 15.87626667-117.08693333 47.18826667-30.32853333 31.28533333-45.70453333 71.07306667-45.70453334 118.25386666 0 45.696 14.68373333 83.24053333 43.6384 111.59573334 28.94186667 28.336 67.42293333 42.7072 114.37866667 42.7072 33.39306667 0 61.65226667-4.84586667 83.98506667-14.39786667l1.86346666-0.79786667v-31.95733333l-4.3648 2.0224c-22.128 10.25813333-48.70933333 15.45813333-79.00693333 15.45813333-38.81493333 0-69.85386667-11.5904-92.256-34.45226666-22.42133333-22.87573333-33.78986667-53.57333333-33.78986667-91.23733334 0-38.51093333 12.1568-71.0112 36.13546667-96.59306666 23.92746667-25.52853333 54.59413333-38.47253333 91.14666667-38.47253334 37.53066667 0 67.26826667 10.70613333 88.38613333 31.82186667 21.11466667 21.1168 31.81866667 48.77333333 31.81866667 82.19626667 0 22.90666667-4.28373333 41.68746667-12.7392 55.81546666-8.2656 13.81226667-18.30826667 20.52586667-30.7008 20.52586667-4.61973333 0-18.68266667 0-18.68266667-34.95573333 0-1.728 1.53173333-21.6832 8.83306667-106.92053334l0.2848-3.33653333h-32.17386667l-0.2368 2.81493333c-0.42133333 4.93866667-0.74773333 8.7488-1.00586667 11.68533334-2.58453333-3.70133333-6.0736-6.99306667-10.4352-9.84426667-7.61386667-4.96853333-16.4224-7.488-26.17813333-7.488-24.34773333 0-44.50133333 9.9776-59.90506667 29.6576-15.22133333 19.4496-22.93973333 44.1888-22.93973333 73.52853333 0 22.576 5.6896 40.74133333 16.91413333 53.9872 11.34826667 13.3984 26.33173333 20.18986667 44.52693334 20.18986667 24.46293333 0 42.20053333-11.93706667 52.85973333-35.52533333 3.71946667 23.5872 18.61866667 35.52533333 44.4224 35.52533333 22.8256 0 42.38506667-10.18346667 58.13653333-30.27093333 15.57546667-19.8592 23.47093333-45.76106667 23.47093334-76.98026667 0.00106667-41.86453333-14.6528-76.34453333-43.55093334-102.47893333z m-95.9904 158.42666666c-8.39146667 14.55573333-19.46666667 21.62986667-33.86133333 21.62986667-10.23146667 0-17.88373333-3.8208-23.3952-11.68746667-5.67466667-8.096-8.55466667-19.0784-8.55466667-32.63893333 0-20.8832 4.62933333-38.7168 13.75573334-53.00053333 8.9696-14.0416 20.2432-20.86613333 34.46506666-20.86613334 20.54293333 0 30.5312 12.06826667 30.5312 36.89706667 0.00106667 24.688-4.352 44.76373333-12.9408 59.66613333z" fill="#61c4fa" /></svg>