<?xml version="1.0" standalone="no"?><!DOCTYPE svg PUBLIC "-//W3C//DTD SVG 1.1//EN" "http://www.w3.org/Graphics/SVG/1.1/DTD/svg11.dtd"><svg class="icon" width="200px" height="200.00px" viewBox="0 0 1024 1024" version="1.1" xmlns="http://www.w3.org/2000/svg"><path d="M206.40805925 869.65665185c-69.17688889 0-125.61066667-57.16195555-125.61066666-127.4311111V105.43407408H28.97540741v636.79146667c0 98.78945185 79.6141037 179.2530963 177.43265184 179.25309628H999.87911111v-51.82198518H206.40805925z"  /><path d="M228.98157037 746.59460741h132.64971852c24.15122963 0 43.69066667-19.53943703 43.69066666-43.69066666V415.63780741c0-24.15122963-19.53943703-43.69066667-43.69066666-43.69066666H228.98157037c-24.15122963 0-43.69066667 19.53943703-43.69066667 43.69066666v287.38749629c0 24.02986667 19.53943703 43.5693037 43.69066667 43.56930371z m8.13131852-322.82548149h116.38708148v271.0034963h-116.38708148V423.76912592zM775.96444445 746.59460741h132.64971852c24.15122963 0 43.69066667-19.53943703 43.69066666-43.69066666V305.68296297c0-24.15122963-19.53943703-43.69066667-43.69066666-43.69066667H775.96444445c-24.15122963 0-43.69066667 19.53943703-43.69066667 43.69066667v397.22097778c0 24.15122963 19.53943703 43.69066667 43.69066667 43.69066666z m8.13131852-432.78032593h116.38708148v380.95834074h-116.38708148V313.81428148zM502.41232592 746.59460741h132.64971853c24.15122963 0 43.69066667-19.53943703 43.69066666-43.69066666V149.12474075c0-24.15122963-19.53943703-43.69066667-43.69066666-43.69066667H502.41232592c-24.15122963 0-43.69066667 19.53943703-43.69066667 43.69066667v553.90056295c0.12136297 24.02986667 19.6608 43.5693037 43.69066667 43.56930371z m8.25268149-589.33854816h116.38708148v537.51656297h-116.38708148V157.25605925z"  /></svg>
