<?xml version="1.0" standalone="no"?><!DOCTYPE svg PUBLIC "-//W3C//DTD SVG 1.1//EN" "http://www.w3.org/Graphics/SVG/1.1/DTD/svg11.dtd"><svg t="1571622953352" class="icon" viewBox="0 0 1185 1024" version="1.1" xmlns="http://www.w3.org/2000/svg" p-id="21550" xmlns:xlink="http://www.w3.org/1999/xlink" width="231.4453125" height="200"><defs><style type="text/css"></style></defs><path d="M485.052632 512m-485.052632 0a485.052632 485.052632 0 1 0 970.105263 0 485.052632 485.052632 0 1 0-970.105263 0Z" fill="#E1E1E1" p-id="21551"></path><path d="M760.535579 52.897684a13.473684 13.473684 0 1 1-10.509474 24.791579A470.016 470.016 0 0 0 565.894737 40.421053C305.448421 40.421053 94.315789 251.553684 94.315789 512S305.448421 983.578947 565.894737 983.578947 1037.473684 772.446316 1037.473684 512c0-33.037474-3.395368-65.616842-10.078316-97.414737a13.473684 13.473684 0 0 1 26.381474-5.52421c7.060211 33.603368 10.644211 68.042105 10.644211 102.938947 0 275.321263-223.205053 498.526316-498.526316 498.526316S67.368421 787.321263 67.368421 512 290.573474 13.473684 565.894737 13.473684c67.745684 0 133.605053 13.527579 194.640842 39.424z" fill="#333333" p-id="21552"></path><path d="M695.538526 260.473263a13.473684 13.473684 0 0 1-12.368842 23.929263 254.706526 254.706526 0 0 0-148.48-26.489263 256 256 0 1 0 285.29179 222.881684 13.473684 13.473684 0 1 1 26.758737-3.287579c19.024842 155.109053-91.270737 296.286316-246.352843 315.338106-155.109053 19.024842-296.286316-91.270737-315.338105-246.352842-19.024842-155.109053 91.270737-296.286316 246.352842-315.338106 57.209263-7.006316 113.987368 3.422316 164.136421 29.318737z" fill="#333333" p-id="21553"></path><path d="M582.278737 537.707789a13.473684 13.473684 0 1 1-16.761263-21.099789l324.796631-258.048a13.473684 13.473684 0 0 1 16.761263 21.099789l-324.796631 258.048z" fill="#333333" p-id="21554"></path><path d="M909.419789 256.080842l77.392843 24.252632 148.210526-91.351579-109.702737-22.905263V54.784l-115.900632 106.307368v95.016421z m244.358737-90.704842a21.557895 21.557895 0 0 1 6.925474 39.450947l-161.845895 99.705264a21.557895 21.557895 0 0 1-17.731368 2.236631l-98.654316-30.881684V158.693053a21.557895 21.557895 0 0 1 7.006316-15.898948l126.652631-116.170105a21.557895 21.557895 0 0 1 36.109474 15.898947V144.168421l101.537684 21.180632z" fill="#333333" p-id="21555"></path></svg>